<?xml version="1.0" encoding="UTF-8"?>
<svg id="White" xmlns="http://www.w3.org/2000/svg" viewBox="0 0 2265.2 441.24">
  <defs>
    <style>
      .cls-1 {
        fill: #fff;
        stroke-width: 0px;
      }
    </style>
  </defs>
  <g id="DANGER">
    <path class="cls-1" d="M686.4,186.4c-13.68-24-32.53-42.24-56.57-54.71-24.04-12.46-51.12-18.69-81.23-18.69h-143.4v319.12h143.4c30.11,0,57.12-6.23,81.02-18.69,23.9-12.46,42.75-30.69,56.57-54.71,13.81-24,20.72-52.73,20.72-86.16s-6.84-62.15-20.52-86.16ZM579.06,299.46c-3.73,7.29-9.12,12.76-16.16,16.41-7.04,3.65-15.54,5.47-25.49,5.47h-9.95v-97.56h9.95c9.95,0,18.44,1.82,25.49,5.47,7.05,3.65,12.43,9.12,16.16,16.41,3.73,7.29,5.59,16.26,5.59,26.9s-1.87,19.6-5.59,26.9Z"/>
    <path class="cls-1" d="M933.62,113h-127.23l-106.93,319.12h125.58c3.59-15.19,6.28-26.67,8.08-34.42.34-1.45.7-3.05,1.1-4.79h71.46c.28,1.21.55,2.36.79,3.42,1.79,7.75,4.62,19.68,8.5,35.79h124.75l-106.1-319.12ZM887.17,314.5h-34.77l17.27-74.52,17.5,74.52Z"/>
    <path class="cls-1" d="M1238.23,113v123.59l-78.74-123.59h-103.2v319.12h113.97v-123.59l78.74,123.59h103.2V113h-113.97Z"/>
    <path class="cls-1" d="M1542.42,240.19v77.04h36.88v20.97c-2.21,2.13-5.46,3.88-9.74,5.24-4.29,1.37-8.64,2.05-13.06,2.05-15.75,0-27.77-6.08-36.06-18.24-8.29-12.15-12.43-29.33-12.43-51.52,0-17.93,3.17-32.21,9.53-42.85,6.35-10.64,14.98-18.24,25.9-22.79,10.91-4.56,23.97-6.84,39.17-6.84,17.96,0,34.19,1.9,48.7,5.7,14.5,3.8,28.53,9.2,42.07,16.18v-97.1c-34.54-16.11-70.04-24.16-106.51-24.16-38.96,0-72.46,7-100.5,20.97-28.05,13.98-49.46,33.89-64.24,59.72-14.79,25.84-22.17,56.23-22.17,91.18,0,32.82,6.56,61.7,19.69,86.62,13.12,24.92,31.71,44.3,55.74,58.13,24.04,13.83,51.94,20.74,83.72,20.74,29.56,0,55.88-3.95,78.95-11.85,23.07-7.9,41.92-18.54,56.57-31.91v-157.28h-132.21Z"/>
    <path class="cls-1" d="M1938.21,204.18v-91.18h-227.12v319.12h227.12v-91.18h-104.85v-29.63h81.65v-79.78h-81.65v-27.35h104.85Z"/>
    <path class="cls-1" d="M2265.2,432.12l-63.92-135.12c7.86-6.54,14.59-14.15,20.2-22.84,10.08-15.65,15.13-33.51,15.13-53.57s-5.04-39.58-15.13-55.85c-10.09-16.26-23.83-28.95-41.24-38.07-17.41-9.12-36.75-13.68-58.02-13.68h-152.93v319.12h122.26v-95.36l38.96,95.36h134.7ZM2120.97,206.91c6.35,5.47,9.53,13.83,9.53,25.07,0,10.64-3.18,18.69-9.53,24.16-6.36,5.47-13.82,8.21-22.38,8.21h-7.04v-65.65h7.04c8.56,0,16.02,2.74,22.38,8.21Z"/>
  </g>
  <g id="IDEA_Interprets" data-name="IDEA Interprets">
    <path class="cls-1" d="M405.11,3.85h53.61v76.9h-53.61V3.85Z"/>
    <path class="cls-1" d="M470.8,3.85h83.49c15.53,0,28.45,2.45,38.78,7.36,10.33,4.91,17.03,11.68,20.1,20.32.59,1.69,1.03,3.42,1.32,5.22.29,1.79.44,3.64.44,5.55s-.16,3.9-.49,5.77c-.33,1.87-.82,3.68-1.48,5.44-2.05,5.64-5.73,10.51-11.04,14.61-5.31,4.1-12.01,7.23-20.1,9.39-8.09,2.16-17.27,3.24-27.52,3.24h-83.49V3.85ZM553.74,54.1c2.86-1.65,4.79-3.9,5.82-6.76.22-.51.38-1.04.49-1.59s.2-1.12.27-1.7c.07-.58.11-1.17.11-1.76,0-.88-.07-1.74-.22-2.58-.15-.84-.37-1.67-.66-2.47-1.03-2.86-2.97-5.11-5.82-6.76-2.86-1.65-6.34-2.47-10.44-2.47h-18.9v28.56h18.9c4.1,0,7.58-.82,10.44-2.47Z"/>
    <path class="cls-1" d="M622.07,3.85h113.92v21.97h-60.31v6.04h58.55v20.87h-58.55v6.04h60.31v21.97h-113.92V3.85Z"/>
    <path class="cls-1" d="M848.47,80.74h55.15L858.14,3.85h-73.38l-45.48,76.9h55.15l8.22-17.03h37.64l8.18,17.03ZM813.89,40.43l3.82-7.91,2.42-14.83h2.86l2.31,14.83,3.8,7.91h-15.2Z"/>
    <path class="cls-1" d="M930.53,3.85h53.61v76.9h-53.61V3.85Z"/>
    <path class="cls-1" d="M996.22,3.85h62.62l23.18,29.22,4.17,26.14h2.86V3.85h50.09v76.9h-62.62l-23.51-29.22-3.84-26.15h-2.86v55.37h-50.09V3.85Z"/>
    <polygon class="cls-1" points="1274.15 3.85 1144.74 3.85 1144.74 28.01 1182.64 28.01 1182.64 80.74 1236.25 80.74 1236.25 28.01 1274.15 28.01 1274.15 3.85"/>
    <polygon class="cls-1" points="1393.67 25.82 1393.67 3.85 1279.75 3.85 1279.75 80.74 1393.67 80.74 1393.67 58.77 1333.36 58.77 1333.36 52.73 1391.91 52.73 1391.91 31.86 1333.36 31.86 1333.36 25.82 1393.67 25.82"/>
    <path class="cls-1" d="M1476.71,80.74h61.74l-18.02-28.67-16.04-3.08v-2.4c6.78-.48,12.26-1.36,16.42-2.65,6.63-2.05,11.04-4.87,13.24-8.46.88-1.46,1.54-2.89,1.98-4.28.44-1.39.66-2.97.66-4.72s-.2-3.29-.6-4.83c-.4-1.54-1.01-3-1.81-4.39-2.42-4.25-6.72-7.54-12.91-9.89-6.19-2.34-14.12-3.51-23.78-3.51h-92.94v76.9h53.61v-26.91h1.48l16.98,26.91ZM1474.52,24.94c1.9,0,3.5.28,4.78.82,1.28.55,2.21,1.34,2.8,2.36.22.37.37.73.44,1.1.07.37.11.77.11,1.21s-.04.84-.11,1.21c-.07.37-.22.73-.44,1.1-.59,1.03-1.52,1.81-2.8,2.36-1.28.55-2.88.82-4.78.82h-16.26v-10.99h16.26Z"/>
    <path class="cls-1" d="M1676.37,24.33c-.48-1.94-1.23-3.75-2.25-5.44-2.78-4.83-7.41-8.55-13.9-11.15-6.48-2.6-14.7-3.9-24.66-3.9h-90.52v76.9h53.61v-23.62h36.91c9.96,0,18.18-1.3,24.66-3.9,6.48-2.6,11.11-6.32,13.9-11.15,1.03-1.68,1.78-3.5,2.25-5.44.48-1.94.71-4.01.71-6.21s-.24-4.16-.71-6.1ZM1622.93,31.69c-.07.4-.22.79-.44,1.15-.59,1.03-1.52,1.81-2.8,2.36-1.28.55-2.88.82-4.78.82h-16.26v-11.1h16.26c1.9,0,3.5.28,4.78.82,1.28.55,2.21,1.34,2.8,2.36.22.37.37.73.44,1.1.07.37.11.77.11,1.21s-.04.86-.11,1.26Z"/>
    <path class="cls-1" d="M1756.51,80.74h61.74l-18.02-28.67-16.04-3.08v-2.4c6.78-.48,12.26-1.36,16.42-2.65,6.63-2.05,11.04-4.87,13.24-8.46.88-1.46,1.54-2.89,1.98-4.28.44-1.39.66-2.97.66-4.72s-.2-3.29-.61-4.83-1.01-3-1.81-4.39c-2.42-4.25-6.72-7.54-12.91-9.89-6.19-2.34-14.12-3.51-23.78-3.51h-92.94v76.9h53.61v-26.91h1.48l16.98,26.91ZM1754.31,24.94c1.9,0,3.5.28,4.78.82,1.28.55,2.21,1.34,2.8,2.36.22.37.37.73.44,1.1.07.37.11.77.11,1.21s-.04.84-.11,1.21c-.07.37-.22.73-.44,1.1-.59,1.03-1.52,1.81-2.8,2.36-1.28.55-2.88.82-4.78.82h-16.26v-10.99h16.26Z"/>
    <path class="cls-1" d="M1824.83,3.85h113.92v21.97h-60.31v6.04h58.55v20.87h-58.55v6.04h60.31v21.97h-113.92V3.85Z"/>
    <polygon class="cls-1" points="2072.66 3.85 1943.25 3.85 1943.25 28.01 1981.15 28.01 1981.15 80.74 2034.76 80.74 2034.76 28.01 2072.66 28.01 2072.66 3.85"/>
    <path class="cls-1" d="M2102.26,81.35c-9.71-2.16-16.9-5.29-21.59-9.39-4.69-4.1-7.03-9.08-7.03-14.94h52.07c0,1.47.6,2.69,1.81,3.68,1.21.99,2.93,1.74,5.16,2.25,2.23.51,4.81.77,7.75.77,3.15,0,5.84-.27,8.07-.82,2.23-.55,3.68-1.33,4.34-2.36.15-.22.26-.46.33-.71.07-.26.11-.53.11-.82s-.04-.57-.11-.82c-.07-.26-.15-.49-.22-.71l-.11-.11c-.51-.88-1.74-1.54-3.68-1.98-1.94-.44-5.51-.95-10.71-1.54l-27.35-3.3c-10.11-1.24-17.78-2.91-23.01-5-5.24-2.09-8.84-4.81-10.82-8.18-.81-1.39-1.39-2.93-1.76-4.61-.37-1.68-.55-3.48-.55-5.38,0-1.24.09-2.42.27-3.51.18-1.1.46-2.18.82-3.24.37-1.06.84-2.1,1.43-3.13,3.37-5.71,10.33-10.05,20.87-13.02s25.01-4.45,43.39-4.45c14.57,0,26.66,1.08,36.25,3.24,9.59,2.16,16.71,5.29,21.37,9.39,4.65,4.1,6.97,9.08,6.97,14.94h-52.07c0-2.2-1.26-3.86-3.79-5-2.53-1.13-5.91-1.7-10.16-1.7-3.15,0-5.84.28-8.07.82-2.24.55-3.68,1.34-4.34,2.36-.07.15-.15.31-.22.5-.07.18-.13.37-.16.55-.04.18-.05.35-.05.49,0,.29.04.59.11.88.07.29.18.55.33.77.51.88,1.77,1.56,3.79,2.03,2.01.48,5.55.97,10.6,1.48l29.11,2.86c9.08.88,16.18,2.45,21.31,4.72,5.12,2.27,8.71,5.13,10.77,8.57.8,1.39,1.39,2.93,1.76,4.61.37,1.69.55,3.51.55,5.49s-.2,3.68-.6,5.33c-.4,1.65-1.04,3.24-1.92,4.78-3.37,5.71-10.33,10.05-20.87,13.02s-25.01,4.45-43.39,4.45c-14.79,0-27.04-1.08-36.75-3.24Z"/>
  </g>
  <g id="Logo_Mark" data-name="Logo Mark">
    <path class="cls-1" d="M8.38,163.18h103.32l7.34,269.12H0L8.38,163.18Z"/>
    <rect class="cls-1" x="7.85" y="3.85" width="103.35" height="103.35"/>
    <path class="cls-1" d="M317.13,272.96h-103.32L206.47,3.85h119.04l-8.38,269.12Z"/>
    <rect class="cls-1" x="214.32" y="328.95" width="103.35" height="103.35" transform="translate(531.99 761.25) rotate(180)"/>
  </g>
</svg>