<?xml version="1.0" encoding="utf-8"?>
<!-- Generator: Adobe Illustrator 28.1.0, SVG Export Plug-In . SVG Version: 6.00 Build 0)  -->
<svg version="1.1" id="Layer_1" xmlns="http://www.w3.org/2000/svg" xmlns:xlink="http://www.w3.org/1999/xlink" x="0px" y="0px"
	 viewBox="0 0 427.4 82.7" style="enable-background:new 0 0 427.4 82.7;" xml:space="preserve">
<style type="text/css">
	.st0{fill:#FFFFFF;}
</style>
<path class="st0" d="M76.4,36c-7.6,1.3-16.3,3.6-26.5,8.5c-0.1,0-0.3,0.1-0.5,0.2c-4,2-8,4.6-11.5,7.4c-3.6,2.8-6.7,5.9-8.9,8.9
	c-2.6,3.6-3.8,6.8-3,9.9c0.1,0.5,0.3,1,0.5,1.4c0.3,0.7,0.7,1.4,1.3,2.1c1.4,1.9,3.7,3.7,6.8,5.6c0.7,0.4,3.7,2.1,4.4,2.5
	c0,0,0.1,0,0.1,0c0.1,0,0.2,0,0.3,0c0,0,3.1-1.7,8.7-5.1c3.2-2,9-6.8,12.2-10.1c4.9-5.1,8.1-10.6,8.1-10.6s1.4-2.2,3-5.7
	c1.6-3.5,3.4-8.3,4.5-12.9C76,38,76,37.8,76,37.8c0.1-0.4,0.2-0.8,0.3-1.2C76.3,36.4,76.4,36.2,76.4,36C76.4,36,76.4,36,76.4,36z
	 M39.3,74.9c-1.7,0-3.2-2.2-3.2-5c0-2.8,1.6-5.1,3.3-5c1.7,0,3.2,2.2,3.2,5C42.5,72.6,41,74.9,39.3,74.9z M77.5,22
	c-19.4-3.8-37.8,1.1-37.8,1.1s-0.1,0-0.7,0.2C23,27.2,1,36.4,8.4,53.5c0.3,0.6,0.6,1.2,1,1.8c0.2,0.4,0.4,0.7,0.6,1.1
	c0.1,0.2,0.2,0.4,0.4,0.7c0.3,0.5,0.6,0.9,0.9,1.4c0.1,0.1,0.1,0.2,0.2,0.3c0.3,0.5,0.7,1.1,1.1,1.6c0,0,0,0,0,0
	c1.5,2.2,3.4,4.5,5.3,6.5c4.5-6.2,9.2-11.1,14.1-15.2s10-7.2,15.3-9.7c0.5-0.3,1-0.5,1.7-0.8c9.6-4.2,19.8-6,26-6.9
	c0.5-0.1,1.4-0.2,2-0.3c0.6-3.1,1-6.4,1.4-9.7c0.1-0.6,0.1-1.3,0.2-1.9C78.1,22.2,77.9,22.1,77.5,22z M23.2,47.6
	c-1.2,2.7-3.7,4.2-5.3,3.5c-1.5-0.7-2-3.7-0.8-6.4c1.2-2.7,3.7-4.2,5.3-3.5C24,42,24.5,44.9,23.2,47.6z M78.7,6.6
	c0-0.2-0.1-0.4-0.3-0.5c-7.3-2.4-19.5-5.7-34.9-6.1h0C42,0,40.6,0,39.3,0c-7.6,0-17.2,0.6-28,3.1C4.7,4.6-0.1,10.5,0,17.3
	C0.1,22,0.6,28.4,2.4,36.6c5.5-4.7,11.5-8.4,17.7-11.3c6.2-2.9,12.7-4.8,19.2-6h0c5.3-1,11.1-1.6,17.1-1.6c7.1,0,14.5,0.8,22,2.5
	c0.2-3.3,0.2-6.7,0.2-10.3c0-1,0-1,0-1C78.7,8.2,78.7,7.4,78.7,6.6z M16.6,19.6c-2.1,2.2-5.1,2.7-6.4,1.4c-1.3-1.3-0.8-4.2,1.3-6.4
	c2.2-2.2,5.1-2.7,6.4-1.4C19.2,14.5,18.8,17.4,16.6,19.6z M104.8,21.6c0-0.2,0.2-0.4,0.4-0.4h0.9c0.2,0,0.4,0.2,0.4,0.4v14.1
	c0,0.2-0.2,0.4-0.4,0.4h-0.9c-0.2,0-0.4-0.2-0.4-0.4V21.6z M111.8,21.6c0-0.2,0.2-0.4,0.4-0.4h4.8c4.1,0,7.5,3.4,7.5,7.4
	c0,4.1-3.4,7.5-7.5,7.5h-4.8c-0.2,0-0.4-0.2-0.4-0.4V21.6z M116.8,34.6c3.5,0,6-2.5,6-6c0-3.5-2.5-6-6-6h-3.4v12H116.8z M129,21.6
	c0-0.2,0.2-0.4,0.4-0.4h8.4c0.2,0,0.4,0.2,0.4,0.4v0.6c0,0.2-0.2,0.4-0.4,0.4h-7.2v5.2h6.1c0.2,0,0.4,0.2,0.4,0.4v0.6
	c0,0.2-0.2,0.4-0.4,0.4h-6.1v5.4h7.2c0.2,0,0.4,0.2,0.4,0.4v0.6c0,0.2-0.2,0.4-0.4,0.4h-8.4c-0.2,0-0.4-0.2-0.4-0.4V21.6z
	 M140.6,35.6l6.5-14.4c0.1-0.1,0.2-0.2,0.4-0.2h0.2c0.2,0,0.3,0.1,0.4,0.2l6.4,14.4c0.1,0.3,0,0.6-0.4,0.6h-0.9
	c-0.2,0-0.3-0.1-0.4-0.2l-1.6-3.5h-7.6l-1.6,3.5c0,0.1-0.2,0.2-0.4,0.2H141C140.7,36.1,140.5,35.8,140.6,35.6z M150.8,31
	c-1-2.3-2.1-4.7-3.1-7h-0.2l-3.1,7H150.8z M163.6,33.9l0.3-0.4c0.2-0.3,0.4-0.4,0.7-0.1c0.2,0.1,1.8,1.6,3.7,1.6
	c1.7,0,2.9-1.1,2.9-2.4c0-1.5-1.3-2.3-3.7-3.4c-2.3-1-3.8-1.9-3.8-4.3c0-1.5,1.2-3.8,4.5-3.8c2.1,0,3.6,1.1,3.6,1.1
	c0.1,0.1,0.4,0.3,0.1,0.7l-0.2,0.4c-0.2,0.3-0.4,0.3-0.7,0.1c-0.9-0.5-1.6-0.9-2.8-0.9c-2.3,0-2.9,1.5-2.9,2.3
	c0,1.5,1.1,2.2,2.9,2.9c2.9,1.2,4.7,2.3,4.7,4.7c0,2.2-2.1,3.9-4.6,3.9c-2.5,0-4.2-1.5-4.5-1.7C163.5,34.4,163.3,34.3,163.6,33.9z
	 M183.8,21c2.2,0,3.7,0.7,5.2,2c0.2,0.2,0.2,0.4,0,0.6l-0.6,0.6c-0.2,0.2-0.3,0.2-0.6,0c-1.1-1-2.5-1.6-4.1-1.6c-3.4,0-6,2.8-6,6.1
	c0,3.3,2.6,6.1,6,6.1c1.9,0,2.9-0.6,4.1-1.6c0.2-0.2,0.4-0.1,0.6,0l0.5,0.5c0.2,0.1,0.1,0.4,0,0.6c-1.4,1.3-3.2,2.1-5.1,2.1
	c-4.3,0-7.7-3.4-7.7-7.7S179.5,21,183.8,21z M193.4,21.6c0-0.2,0.2-0.4,0.4-0.4h0.8c0.2,0,0.4,0.2,0.4,0.4v6.2h8.7v-6.2
	c0-0.2,0.2-0.4,0.4-0.4h0.8c0.2,0,0.4,0.2,0.4,0.4v14.1c0,0.2-0.2,0.4-0.4,0.4h-0.8c-0.2,0-0.4-0.2-0.4-0.4v-6.5H195v6.5
	c0,0.2-0.2,0.4-0.4,0.4h-0.8c-0.2,0-0.4-0.2-0.4-0.4V21.6z M217.4,21c4.3,0,7.7,3.4,7.7,7.7s-3.4,7.7-7.7,7.7
	c-4.3,0-7.7-3.4-7.7-7.7S213.2,21,217.4,21z M217.4,34.8c3.4,0,6.2-2.8,6.2-6.2c0-3.4-2.8-6.2-6.2-6.2c-3.4,0-6.2,2.8-6.2,6.2
	C211.3,32.1,214,34.8,217.4,34.8z M236.3,21c4.3,0,7.7,3.4,7.7,7.7s-3.4,7.7-7.7,7.7c-4.3,0-7.7-3.4-7.7-7.7S232,21,236.3,21z
	 M236.3,34.8c3.4,0,6.2-2.8,6.2-6.2c0-3.4-2.8-6.2-6.2-6.2c-3.4,0-6.2,2.8-6.2,6.2C230.1,32.1,232.9,34.8,236.3,34.8z M248.4,21.6
	c0-0.2,0.2-0.4,0.4-0.4h0.8c0.2,0,0.4,0.2,0.4,0.4v13.1h6.1c0.2,0,0.4,0.2,0.4,0.4v0.6c0,0.2-0.2,0.4-0.4,0.4h-7.4
	c-0.2,0-0.4-0.2-0.4-0.4V21.6z M273.3,21c4.3,0,7.7,3.4,7.7,7.7s-3.4,7.7-7.7,7.7c-4.3,0-7.7-3.4-7.7-7.7S269.1,21,273.3,21z
	 M273.3,34.8c3.4,0,6.2-2.8,6.2-6.2c0-3.4-2.8-6.2-6.2-6.2c-3.4,0-6.2,2.8-6.2,6.2C267.2,32.1,269.9,34.8,273.3,34.8z M285.5,21.6
	c0-0.2,0.2-0.4,0.4-0.4h8.4c0.2,0,0.4,0.2,0.4,0.4v0.6c0,0.2-0.2,0.4-0.4,0.4h-7.2v5.8h6.1c0.2,0,0.4,0.2,0.4,0.4v0.6
	c0,0.2-0.2,0.4-0.4,0.4h-6.1v5.8c0,0.2-0.2,0.4-0.4,0.4h-0.8c-0.2,0-0.4-0.2-0.4-0.4V21.6z M305,21.6c0-0.2,0.2-0.4,0.4-0.4h4.8
	c4.1,0,7.5,3.4,7.5,7.4c0,4.1-3.4,7.5-7.5,7.5h-4.8c-0.2,0-0.4-0.2-0.4-0.4V21.6z M310,34.6c3.5,0,6-2.5,6-6c0-3.5-2.5-6-6-6h-3.4
	v12H310z M322.2,21.6c0-0.2,0.2-0.4,0.4-0.4h8.4c0.2,0,0.4,0.2,0.4,0.4v0.6c0,0.2-0.2,0.4-0.4,0.4h-7.2v5.2h6.1
	c0.2,0,0.4,0.2,0.4,0.4v0.6c0,0.2-0.2,0.4-0.4,0.4h-6.1v5.4h7.2c0.2,0,0.4,0.2,0.4,0.4v0.6c0,0.2-0.2,0.4-0.4,0.4h-8.4
	c-0.2,0-0.4-0.2-0.4-0.4V21.6z M334.8,33.9l0.3-0.4c0.2-0.3,0.4-0.4,0.7-0.1c0.2,0.1,1.8,1.6,3.7,1.6c1.7,0,2.9-1.1,2.9-2.4
	c0-1.5-1.3-2.3-3.7-3.4c-2.3-1-3.8-1.9-3.8-4.3c0-1.5,1.2-3.8,4.5-3.8c2.1,0,3.6,1.1,3.6,1.1c0.1,0.1,0.4,0.3,0.1,0.7l-0.2,0.4
	c-0.2,0.3-0.4,0.3-0.7,0.1c-0.9-0.5-1.6-0.9-2.8-0.9c-2.3,0-2.9,1.5-2.9,2.3c0,1.5,1.1,2.2,2.9,2.9c2.9,1.2,4.7,2.3,4.7,4.7
	c0,2.2-2.1,3.9-4.6,3.9c-2.5,0-4.2-1.5-4.5-1.7C334.7,34.4,334.5,34.3,334.8,33.9z M348.3,21.6c0-0.2,0.2-0.4,0.4-0.4h0.9
	c0.2,0,0.4,0.2,0.4,0.4v14.1c0,0.2-0.2,0.4-0.4,0.4h-0.9c-0.2,0-0.4-0.2-0.4-0.4V21.6z M362.1,21c2.2,0,3.7,0.7,5.2,2
	c0.2,0.2,0.2,0.4,0,0.6c-0.2,0.2-0.4,0.4-0.6,0.6c-0.2,0.2-0.3,0.2-0.6,0c-1.1-1-2.6-1.7-4.1-1.7c-3.4,0-5.9,2.8-5.9,6.1
	c0,3.3,2.6,6.2,5.9,6.2c2.3,0,3.8-0.9,3.8-0.9v-3h-2.5c-0.2,0-0.4-0.2-0.4-0.4v-0.8c0-0.2,0.2-0.4,0.4-0.4h3.7
	c0.2,0,0.4,0.2,0.4,0.4v4.9c0,0.1-0.1,0.3-0.2,0.3c0,0-2.2,1.4-5.3,1.4c-4.3,0-7.7-3.4-7.7-7.7S357.8,21,362.1,21z M372.2,21.3
	c0-0.2,0.2-0.4,0.4-0.4h0.3c0.1,0,0.3,0,0.3,0.2l9.5,11.8c0,0,0,0,0,0V21.6c0-0.2,0.2-0.4,0.4-0.4h0.7c0.2,0,0.4,0.2,0.4,0.4v14.4
	c0,0.2-0.2,0.4-0.4,0.4h-0.2c-0.2,0-0.3,0-0.3-0.2l-9.7-12.1h0v11.6c0,0.2-0.2,0.4-0.4,0.4h-0.7c-0.2,0-0.4-0.2-0.4-0.4V21.3z
	 M112.1,46.9c2.3,0,4,0.7,5.6,2.1c0.2,0.2,0.2,0.5,0,0.6l-1.4,1.4c-0.2,0.2-0.4,0.2-0.6,0c-1-0.9-2.3-1.4-3.5-1.4
	c-2.9,0-5.1,2.5-5.1,5.4c0,2.9,2.2,5.3,5.2,5.3c1.4,0,2.6-0.5,3.5-1.3c0.2-0.2,0.4-0.1,0.6,0l1.4,1.5c0.2,0.2,0.1,0.5,0,0.6
	c-1.6,1.5-3.5,2.2-5.6,2.2c-4.6,0-8.3-3.7-8.3-8.3S107.5,46.9,112.1,46.9z M122.8,62.6l7.2-15.5c0.1-0.1,0.2-0.3,0.4-0.3h0.2
	c0.2,0,0.3,0.1,0.4,0.3l7.1,15.5c0.1,0.3,0,0.6-0.4,0.6h-2c-0.3,0-0.5-0.1-0.7-0.5l-1.1-2.5H127l-1.1,2.5c-0.1,0.2-0.3,0.5-0.7,0.5
	h-2C122.8,63.2,122.6,62.9,122.8,62.6z M132.7,57.7l-2.3-5.1h-0.1l-2.3,5.1H132.7z M144.2,47.5c0-0.2,0.2-0.4,0.4-0.4h5.4
	c2.8,0,5.2,2.3,5.2,5.1c0,2.9-2.3,5.2-5.1,5.2h-2.9v5.4c0,0.2-0.2,0.4-0.4,0.4h-2.1c-0.3,0-0.4-0.2-0.4-0.4V47.5z M149.9,54.5
	c1.3,0,2.3-1,2.3-2.4c0-1.3-1-2.2-2.3-2.2h-2.8v4.6H149.9z M161.9,47.5c0-0.2,0.2-0.4,0.4-0.4h2.1c0.2,0,0.4,0.2,0.4,0.4v15.2
	c0,0.2-0.2,0.4-0.4,0.4h-2.1c-0.2,0-0.4-0.2-0.4-0.4V47.5z M172.9,47.5c0-0.2,0.2-0.4,0.4-0.4h2.1c0.2,0,0.4,0.2,0.4,0.4v12.9h5.9
	c0.3,0,0.4,0.2,0.4,0.4v1.9c0,0.2-0.2,0.4-0.4,0.4h-8.4c-0.3,0-0.4-0.2-0.4-0.4V47.5z M186.8,62.6l7.2-15.5c0.1-0.1,0.2-0.3,0.4-0.3
	h0.2c0.2,0,0.3,0.1,0.4,0.3l7.1,15.5c0.1,0.3,0,0.6-0.4,0.6h-2c-0.3,0-0.5-0.1-0.7-0.5l-1.1-2.5H191l-1.1,2.5
	c-0.1,0.2-0.3,0.5-0.7,0.5h-2C186.8,63.2,186.7,62.9,186.8,62.6z M196.7,57.7l-2.3-5.1h-0.1l-2.3,5.1H196.7z M208.2,47.3
	c0-0.2,0.2-0.4,0.4-0.4h0.3c0.2,0,0.3,0,0.4,0.2l9.4,10h0v-9.5c0-0.2,0.2-0.4,0.4-0.4h2.1c0.2,0,0.4,0.2,0.4,0.4V63
	c0,0.2-0.2,0.4-0.4,0.4h-0.3c-0.2,0-0.3,0-0.4-0.2l-9.4-10.4h0v9.9c0,0.2-0.2,0.4-0.4,0.4h-2.1c-0.2,0-0.4-0.2-0.4-0.4V47.3z
	 M237.2,46.9c4.6,0,8.3,3.7,8.3,8.3s-3.7,8.3-8.3,8.3c-4.6,0-8.3-3.7-8.3-8.3S232.6,46.9,237.2,46.9z M237.2,60.4
	c2.9,0,5.3-2.4,5.3-5.3c0-2.9-2.4-5.3-5.3-5.3c-2.9,0-5.3,2.4-5.3,5.3C231.9,58.1,234.3,60.4,237.2,60.4z M262.1,47.5
	c0-0.2,0.2-0.4,0.4-0.4h2.2c0.3,0,0.4,0.2,0.4,0.4v9.6c0,2,1.3,3.3,3.3,3.3c2,0,3.4-1.4,3.4-3.3v-9.6c0-0.2,0.2-0.4,0.4-0.4h2.2
	c0.2,0,0.4,0.2,0.4,0.4v9.8c0,3.5-2.8,6.1-6.4,6.1c-3.6,0-6.4-2.6-6.4-6.1V47.5z M282.8,47.3c0-0.2,0.2-0.4,0.4-0.4h0.3
	c0.2,0,0.3,0,0.4,0.2l9.4,10h0v-9.5c0-0.2,0.2-0.4,0.4-0.4h2.1c0.2,0,0.4,0.2,0.4,0.4V63c0,0.2-0.2,0.4-0.4,0.4h-0.3
	c-0.2,0-0.3,0-0.4-0.2l-9.4-10.4h0v9.9c0,0.2-0.2,0.4-0.4,0.4h-2.1c-0.2,0-0.4-0.2-0.4-0.4V47.3z M304.4,47.5c0-0.2,0.2-0.4,0.4-0.4
	h2.1c0.2,0,0.4,0.2,0.4,0.4v15.2c0,0.2-0.2,0.4-0.4,0.4h-2.1c-0.2,0-0.4-0.2-0.4-0.4V47.5z M313.6,47.7c-0.1-0.3,0-0.6,0.4-0.6h2.3
	c0.2,0,0.3,0.1,0.4,0.3l4.4,9.9h0.1l4.4-9.9c0-0.1,0.2-0.3,0.4-0.3h2.3c0.3,0,0.5,0.3,0.4,0.6l-7.1,15.5c-0.1,0.1-0.2,0.3-0.4,0.3
	h-0.2c-0.2,0-0.3-0.1-0.4-0.3L313.6,47.7z M334.9,47.5c0-0.2,0.2-0.4,0.4-0.4h9.4c0.3,0,0.4,0.2,0.4,0.4v1.9c0,0.2-0.2,0.4-0.4,0.4
	h-6.8v3.8h5.7c0.2,0,0.4,0.2,0.4,0.4V56c0,0.3-0.2,0.4-0.4,0.4h-5.7v4h6.8c0.3,0,0.4,0.2,0.4,0.4v1.9c0,0.2-0.2,0.4-0.4,0.4h-9.4
	c-0.3,0-0.4-0.2-0.4-0.4V47.5z M352.3,47.5c0-0.2,0.2-0.4,0.4-0.4h6.6c2.8,0,5,2.2,5,4.9c0,2.1-1.4,3.8-3.4,4.6l3.2,5.8
	c0.2,0.3,0,0.7-0.4,0.7h-2.4c-0.2,0-0.3-0.1-0.4-0.2l-3.1-6.1h-2.6v5.9c0,0.2-0.2,0.4-0.4,0.4h-2.1c-0.3,0-0.4-0.2-0.4-0.4V47.5z
	 M359.1,54.4c1.2,0,2.3-1.1,2.3-2.3c0-1.2-1.1-2.2-2.3-2.2h-3.7v4.6H359.1z M371,61.6c-0.2-0.2-0.3-0.3-0.1-0.7l0.8-1.4
	c0.2-0.3,0.6-0.3,0.8-0.2c0.9,0.7,2,1.4,3.5,1.4c1.2,0,2.1-0.8,2.1-1.8c0-1.2-1-2-2.9-2.8c-2.2-0.9-4.3-2.3-4.3-5
	c0-2,1.5-4.4,5.2-4.4c2.3,0,4.1,1.2,4.6,1.5c0.2,0.1,0.3,0.5,0.1,0.8l-0.9,1.3c-0.2,0.3-0.5,0.5-0.8,0.3c-1-0.6-1.9-1.3-3.2-1.3
	c-1.3,0-2,0.7-2,1.6c0,1.1,0.9,1.8,2.7,2.6c2.2,0.9,4.8,2.2,4.8,5.2c0,2.4-2,4.6-5.3,4.6C373.2,63.4,371.7,62.2,371,61.6z
	 M388.3,47.5c0-0.2,0.2-0.4,0.4-0.4h2.1c0.2,0,0.4,0.2,0.4,0.4v15.2c0,0.2-0.2,0.4-0.4,0.4h-2.1c-0.2,0-0.4-0.2-0.4-0.4V47.5z
	 M402,49.9h-3.5c-0.3,0-0.4-0.2-0.4-0.4v-1.9c0-0.2,0.2-0.4,0.4-0.4h10.1c0.3,0,0.4,0.2,0.4,0.4v1.9c0,0.2-0.2,0.4-0.4,0.4H405v12.9
	c0,0.2-0.2,0.4-0.4,0.4h-2.1c-0.2,0-0.4-0.2-0.4-0.4V49.9z M419,55.4l-5.2-7.7c-0.2-0.3,0-0.7,0.4-0.7h2.3c0.2,0,0.3,0.1,0.4,0.2
	l3.7,5.3l3.7-5.3c0.1-0.1,0.2-0.2,0.4-0.2h2.4c0.4,0,0.6,0.4,0.4,0.7l-5.3,7.7v7.3c0,0.2-0.2,0.4-0.4,0.4h-2.1
	c-0.3,0-0.4-0.2-0.4-0.4V55.4z"/>
</svg>
