<svg width="1512" height="211" viewBox="0 0 1512 211" fill="none" xmlns="http://www.w3.org/2000/svg">
<g clip-path="url(#clip0_38_833)">
<rect x="-59.4678" y="118.461" width="1600" height="55" transform="rotate(-2.18207 -59.4678 118.461)" fill="#C62E46"/>
<path d="M-29.5025 156.684C-31.8475 156.773 -33.9299 156.329 -35.7497 155.353C-37.5695 154.376 -39.0158 152.979 -40.0884 151.163C-41.1503 149.346 -41.7278 147.217 -41.8208 144.776C-41.8915 142.922 -41.6685 141.21 -41.1518 139.643C-40.6244 138.075 -39.8493 136.706 -38.8265 135.535C-37.8036 134.365 -36.5738 133.443 -35.1371 132.769C-33.7004 132.095 -32.108 131.725 -30.36 131.658C-29.0809 131.61 -27.822 131.732 -26.5832 132.027C-25.3342 132.31 -24.2074 132.747 -23.2028 133.339L-23.0749 133.334L-21.6495 131.663L-20.914 131.635L-20.6295 139.101L-21.8286 139.147C-22.0424 138.579 -22.2702 138.064 -22.5119 137.604C-22.754 137.133 -23.0052 136.705 -23.2653 136.32C-24.0561 135.175 -24.9678 134.362 -26.0003 133.878C-27.0328 133.394 -28.2365 133.179 -29.6115 133.231C-32.1377 133.327 -34.0372 134.323 -35.3099 136.218C-36.5827 138.113 -37.1523 140.814 -37.0187 144.321C-36.8846 147.838 -36.1098 150.526 -34.694 152.382C-33.2681 154.228 -31.308 155.103 -28.8138 155.008C-27.5347 154.96 -26.3935 154.655 -25.3901 154.093C-24.3765 153.521 -23.5424 152.721 -22.8877 151.692C-22.5247 151.134 -22.2177 150.509 -21.9665 149.816C-21.7051 149.112 -21.5208 148.347 -21.4135 147.521L-20.3103 147.479L-19.9862 155.985L-20.9295 156.021L-22.3997 153.995C-23.5294 154.882 -24.6626 155.539 -25.7991 155.966C-26.9357 156.394 -28.1701 156.633 -29.5025 156.684ZM-18.6839 155.935L-18.718 155.04C-17.659 154.818 -16.8677 154.575 -16.3441 154.309C-15.8099 154.043 -15.4127 153.681 -15.1526 153.223C-14.8819 152.764 -14.6176 152.135 -14.3599 151.335L-8.90813 134.732L-10.0886 132.327L-6.3657 130.44L3.12776 152.254C3.33831 152.737 3.56037 153.102 3.79395 153.35C4.02754 153.597 4.34909 153.771 4.75859 153.873C5.17876 153.975 5.76312 154.043 6.51168 154.079L6.5458 154.974L-4.77399 155.405L-4.8081 154.51C-3.81885 154.419 -3.07024 154.316 -2.56227 154.2C-2.0547 154.074 -1.76437 153.85 -1.69129 153.527C-1.6186 153.193 -1.72951 152.663 -2.02401 151.938L-7.99038 137.387L-8.08631 137.39L-12.6708 151.543C-12.8899 152.235 -12.9434 152.792 -12.8312 153.215C-12.7195 153.627 -12.3924 153.945 -11.8502 154.17C-11.3083 154.384 -10.5065 154.556 -9.44474 154.687L-9.41062 155.582L-18.6839 155.935ZM-12.071 147.533L-12.1283 146.031L-2.88697 145.678L-2.82971 147.181L-12.071 147.533ZM17.6358 154.888C15.8877 154.954 14.3265 154.742 12.9521 154.25C11.5773 153.747 10.4926 153.014 9.69807 152.052C9.22847 151.493 8.87225 150.829 8.62942 150.059C8.39685 149.278 8.25538 148.227 8.20502 146.905L7.63908 132.052L4.83394 131.55L4.79983 130.655L14.6487 130.28L14.6828 131.175L11.892 131.89L12.4677 146.999C12.5469 149.077 13.119 150.646 14.1841 151.705C15.2488 152.753 16.6658 153.243 18.4352 153.176C20.631 153.092 22.1835 152.377 23.0928 151.029C23.528 150.404 23.8268 149.56 23.9891 148.497C24.151 147.424 24.1986 146.013 24.132 144.265L23.6435 131.442L20.8064 130.942L20.7722 130.046L28.0629 129.768L28.0971 130.664L25.2903 131.379L25.8373 145.737C25.8861 147.016 25.8164 148.129 25.6283 149.075C25.4508 150.021 25.1566 150.844 24.7456 151.543C24.1225 152.559 23.2029 153.357 21.9868 153.937C20.7809 154.506 19.3306 154.823 17.6358 154.888ZM36.3025 153.84L36.2683 152.945L39.8721 152.135L39.0594 130.807L33.2077 131.029C32.5592 131.94 32.0141 132.9 31.5722 133.91C31.141 134.919 30.7876 135.872 30.5122 136.768L29.537 136.805L30.4342 129.678L51.6668 128.869L53.1038 135.907L52.1445 135.944C51.8017 135.071 51.3769 134.148 50.8702 133.175C50.3741 132.201 49.7681 131.284 49.0522 130.426L43.2644 130.646L44.0771 151.975L47.6681 152.51L47.7022 153.406L36.3025 153.84ZM55.4361 153.111L55.402 152.216L58.1749 151.454L57.3635 130.157L54.5424 129.656L54.5083 128.761L64.2772 128.389L64.3113 129.284L61.5844 129.996L62.3959 151.293L65.1709 151.844L65.205 152.739L55.4361 153.111ZM79.6516 152.525C77.8715 152.593 76.2445 152.334 74.7705 151.75C73.2965 151.166 72.0155 150.323 70.9275 149.222C69.8395 148.122 68.9841 146.825 68.3616 145.333C67.7492 143.83 67.4097 142.205 67.3431 140.457C67.2761 138.698 67.4909 137.051 67.9875 135.517C68.4948 133.981 69.2489 132.624 70.2501 131.443C71.2512 130.263 72.4646 129.331 73.8902 128.647C75.3155 127.952 76.9181 127.571 78.6982 127.503C80.4889 127.435 82.1212 127.693 83.5952 128.277C85.0794 128.85 86.3655 129.687 87.4536 130.788C88.5416 131.889 89.3916 133.185 90.0035 134.678C90.6261 136.17 90.9709 137.795 91.0379 139.554C91.1045 141.302 90.8844 142.949 90.3776 144.495C89.881 146.029 89.1321 147.387 88.131 148.567C87.1299 149.747 85.9114 150.685 84.4755 151.38C83.0502 152.075 81.4423 152.456 79.6516 152.525ZM79.59 150.91C80.5706 150.873 81.4269 150.653 82.1588 150.252C82.901 149.839 83.5309 149.281 84.0485 148.578C84.5768 147.875 84.9993 147.058 85.3161 146.128C85.6329 145.198 85.8559 144.186 85.985 143.093C86.1141 141.999 86.1564 140.866 86.1117 139.693C86.067 138.521 85.9391 137.405 85.7279 136.346C85.5164 135.276 85.2175 134.294 84.8312 133.402C84.4556 132.509 83.9832 131.737 83.414 131.086C82.8448 130.435 82.1747 129.938 81.4037 129.593C80.6327 129.249 79.7622 129.096 78.7923 129.132C77.8116 129.17 76.95 129.389 76.2075 129.791C75.4756 130.193 74.8455 130.745 74.3172 131.449C73.7992 132.141 73.3818 132.952 73.065 133.882C72.7477 134.801 72.5244 135.803 72.3948 136.886C72.2756 137.958 72.2383 139.08 72.2829 140.252C72.3276 141.425 72.4506 142.552 72.6519 143.633C72.8635 144.703 73.1626 145.69 73.5493 146.593C73.9359 147.496 74.4141 148.278 74.9837 148.94C75.5529 149.591 76.2178 150.094 76.9786 150.449C77.7496 150.793 78.6201 150.947 79.59 150.91ZM114.196 151.385L97.812 131.114L98.529 149.932L101.367 150.464L101.401 151.36L94.0948 151.638L94.0607 150.743L96.8822 149.995L96.0702 128.682L93.2171 128.183L93.1829 127.287L100.49 127.009L113.725 143.221L113.146 128.032L110.309 127.531L110.275 126.636L117.581 126.358L117.615 127.253L114.793 127.969L115.683 151.328L114.196 151.385Z" fill="white"/>
<path d="M144.168 140.527L139.832 140.692L139.093 129.409L144.09 129.218L144.168 140.527L144.168 140.527Z" fill="white"/>
<path d="M140.108 147.379L144.446 147.214L144.281 142.876L139.943 143.041L140.108 147.379Z" fill="white"/>
<path d="M166.295 148.887L166.259 147.96L168.954 147.249L168.142 125.936L165.401 125.432L165.367 124.537L173.569 124.224C175.317 124.158 176.833 124.175 178.118 124.275C179.403 124.376 180.531 124.578 181.504 124.883C182.486 125.176 183.377 125.591 184.177 126.126C185.699 127.125 186.908 128.466 187.805 130.151C188.701 131.824 189.19 133.722 189.271 135.843C189.353 138.007 188.987 140.017 188.171 141.873C187.356 143.719 186.211 145.198 184.738 146.311C183.783 147.02 182.735 147.54 181.595 147.872C180.455 148.204 179.053 148.401 177.391 148.464L166.295 148.887ZM176.426 147.092C177.843 147.038 179.019 146.807 179.954 146.397C180.898 145.977 181.707 145.338 182.378 144.48C183.12 143.491 183.66 142.264 183.999 140.799C184.349 139.323 184.488 137.658 184.418 135.804C184.347 133.949 184.083 132.353 183.627 131.014C183.17 129.665 182.524 128.553 181.69 127.678C180.935 126.895 180.027 126.343 178.969 126.02C177.911 125.697 176.587 125.566 174.999 125.627L172.345 125.728L173.091 145.314C173.118 146.007 173.376 146.488 173.867 146.757C174.368 147.026 175.221 147.138 176.426 147.092ZM189.602 147.999L189.568 147.104C190.627 146.882 191.419 146.638 191.942 146.373C192.476 146.107 192.874 145.745 193.134 145.287C193.404 144.828 193.669 144.199 193.926 143.399L199.378 126.795L198.198 124.391L201.921 122.504L211.414 144.318C211.625 144.801 211.847 145.166 212.08 145.413C212.314 145.661 212.635 145.835 213.045 145.937C213.465 146.038 214.049 146.107 214.798 146.142L214.832 147.038L203.512 147.469L203.478 146.574C204.467 146.483 205.216 146.379 205.724 146.264C206.232 146.138 206.522 145.913 206.595 145.59C206.668 145.257 206.557 144.727 206.262 144.002L200.296 129.45L200.2 129.454L195.616 143.607C195.396 144.298 195.343 144.856 195.455 145.278C195.567 145.69 195.894 146.009 196.436 146.234C196.978 146.448 197.78 146.62 198.842 146.75L198.876 147.646L189.602 147.999ZM196.215 139.597L196.158 138.094L205.399 137.742L205.457 139.245L196.215 139.597ZM235.795 146.751L219.411 126.481L220.128 145.299L222.967 145.831L223.001 146.727L215.694 147.005L215.66 146.11L218.481 145.362L217.669 124.049L214.816 123.549L214.782 122.654L222.089 122.376L235.324 138.587L234.745 123.398L231.908 122.898L231.874 122.003L239.18 121.724L239.215 122.62L236.392 123.336L237.282 146.695L235.795 146.751ZM254.337 145.869C252.003 145.958 249.926 145.524 248.107 144.569C246.298 143.603 244.858 142.222 243.786 140.427C242.714 138.621 242.132 136.519 242.041 134.12C241.97 132.266 242.209 130.549 242.757 128.969C243.305 127.379 244.101 125.988 245.144 124.795C246.198 123.603 247.459 122.663 248.928 121.977C250.396 121.281 252.014 120.899 253.784 120.832C255.084 120.782 256.311 120.906 257.464 121.204C258.618 121.501 259.569 121.946 260.317 122.536L260.445 122.531L261.95 120.857L262.782 120.825L263.066 128.292L262.043 128.331C261.292 126.833 260.543 125.65 259.794 124.782C259.046 123.903 258.232 123.283 257.354 122.921C256.486 122.559 255.477 122.4 254.325 122.444C251.746 122.543 249.836 123.549 248.596 125.465C247.367 127.379 246.823 130.186 246.964 133.885C247.101 137.498 247.795 140.151 249.044 141.843C250.304 143.525 252.154 144.319 254.595 144.226C255.575 144.188 256.449 143.995 257.215 143.646C257.98 143.286 258.538 142.795 258.888 142.173C259.009 141.997 259.082 141.802 259.106 141.588C259.14 141.363 259.147 140.989 259.127 140.466L258.905 134.647L256.036 134.148L256.002 133.252L265.883 132.876L265.917 133.771L263.126 134.486L263.436 142.608C262.839 143.186 262.042 143.718 261.047 144.204C260.061 144.679 258.982 145.067 257.809 145.368C256.646 145.658 255.488 145.825 254.337 145.869ZM268.533 144.992L268.499 144.096L271.192 143.353L270.38 122.041L267.639 121.537L267.605 120.641L285.96 119.942L286.8 126.875L285.793 126.913C285.493 126.049 285.133 125.15 284.714 124.216C284.304 123.271 283.816 122.372 283.25 121.518L274.584 121.848L275.399 143.241L283.889 142.917C284.501 141.901 284.992 140.895 285.359 139.899C285.738 138.903 286.089 137.902 286.414 136.897L287.709 136.848L286.744 144.298L268.533 144.992ZM281.354 136.065C281.213 135.451 281.03 134.839 280.804 134.229C280.577 133.607 280.293 132.999 279.95 132.404L274.53 132.61L274.474 131.155L279.894 130.949C280.201 130.318 280.439 129.69 280.607 129.064C280.775 128.428 280.912 127.809 281.017 127.207L282.008 127.17L282.346 136.027L281.354 136.065ZM290.954 144.137L290.92 143.242L293.612 142.467L292.803 121.218L290.06 120.682L290.026 119.787L300.371 119.393C302.023 119.33 303.493 119.541 304.782 120.025C306.081 120.499 307.107 121.239 307.861 122.246C308.625 123.241 309.035 124.491 309.092 125.994C309.152 127.55 308.764 128.856 307.929 129.913C307.104 130.958 305.917 131.729 304.366 132.226L311.217 141.828L314.551 142.342L314.585 143.237L306.974 143.527L299.765 132.914L297.463 133.001L297.817 142.307L301.456 142.84L301.49 143.736L290.954 144.137ZM297.408 131.562L298.799 131.509C300.046 131.462 301.031 131.27 301.755 130.932C302.479 130.595 303.06 130.157 303.498 129.617C303.947 129.077 304.256 128.483 304.423 127.837C304.601 127.179 304.677 126.514 304.651 125.843C304.605 124.617 304.31 123.614 303.768 122.834C303.226 122.054 302.506 121.505 301.608 121.187C301.24 121.052 300.836 120.966 300.397 120.929C299.969 120.881 299.429 120.87 298.779 120.895L297.004 120.962L297.408 131.562ZM318.478 143.089L318.444 142.193C319.503 141.971 320.294 141.728 320.817 141.462C321.352 141.196 321.749 140.834 322.009 140.376C322.28 139.918 322.544 139.288 322.802 138.489L328.253 121.885L327.073 119.48L330.796 117.593L340.289 139.407C340.5 139.89 340.722 140.256 340.955 140.503C341.189 140.75 341.511 140.925 341.92 141.027C342.34 141.128 342.925 141.196 343.673 141.232L343.707 142.127L332.388 142.559L332.353 141.663C333.343 141.572 334.091 141.469 334.599 141.354C335.107 141.227 335.397 141.003 335.47 140.68C335.543 140.346 335.432 139.817 335.138 139.091L329.171 124.54L329.075 124.544L324.491 138.696C324.272 139.388 324.218 139.945 324.33 140.368C324.442 140.78 324.769 141.098 325.311 141.323C325.853 141.537 326.655 141.71 327.717 141.84L327.751 142.735L318.478 143.089ZM325.091 134.687L325.033 133.184L334.275 132.832L334.332 134.335L325.091 134.687ZM360.094 141.503L360.06 140.608L362.817 139.846L362.005 118.549L359.2 118.048L359.166 117.153L368.919 116.781L368.954 117.708L366.226 118.389L367.038 139.685L369.813 140.252L369.847 141.131L360.094 141.503ZM344.601 142.093L344.567 141.198L347.34 140.436L346.529 119.139L343.707 118.638L343.673 117.743L353.442 117.371L353.476 118.266L350.75 118.978L351.561 140.275L354.336 140.826L354.37 141.721L344.601 142.093ZM349.113 129.817L349.056 128.314L364.469 127.726L364.526 129.229L349.113 129.817ZM372.676 141.023L372.642 140.128L375.336 139.385L374.524 118.073L371.782 117.569L371.748 116.673L390.103 115.974L390.944 122.907L389.936 122.945C389.636 122.081 389.277 121.182 388.857 120.248C388.447 119.303 387.959 118.404 387.393 117.55L378.727 117.88L379.542 139.273L388.032 138.949C388.645 137.933 389.135 136.927 389.502 135.931C389.881 134.935 390.232 133.934 390.557 132.929L391.852 132.879L390.887 140.33L372.676 141.023ZM385.497 132.097C385.357 131.483 385.173 130.871 384.947 130.26C384.721 129.639 384.436 129.031 384.093 128.436L378.673 128.642L378.618 127.187L384.038 126.981C384.344 126.35 384.582 125.722 384.75 125.096C384.918 124.46 385.055 123.841 385.16 123.239L386.151 123.201L386.489 132.059L385.497 132.097ZM392.955 140.251L392.921 139.355C393.98 139.134 394.771 138.89 395.295 138.625C395.829 138.359 396.226 137.997 396.486 137.538C396.757 137.08 397.021 136.451 397.279 135.651L402.731 119.047L401.55 116.642L405.273 114.755L414.766 136.57C414.977 137.053 415.199 137.418 415.433 137.665C415.666 137.912 415.988 138.087 416.397 138.189C416.817 138.29 417.402 138.359 418.15 138.394L418.185 139.289L406.865 139.721L406.831 138.825C407.82 138.734 408.568 138.631 409.076 138.516C409.584 138.39 409.874 138.165 409.947 137.842C410.02 137.508 409.909 136.979 409.615 136.254L403.648 121.702L403.552 121.706L398.968 135.859C398.749 136.55 398.695 137.107 398.807 137.53C398.919 137.942 399.246 138.26 399.789 138.485C400.33 138.7 401.132 138.872 402.194 139.002L402.228 139.897L392.955 140.251ZM399.568 131.849L399.51 130.346L408.752 129.994L408.809 131.497L399.568 131.849ZM419.142 139.253L419.107 138.326L421.802 137.615L420.99 116.302L418.249 115.798L418.215 114.903L426.417 114.59C428.165 114.524 429.681 114.54 430.966 114.641C432.251 114.741 433.379 114.944 434.351 115.249C435.334 115.542 436.225 115.956 437.025 116.492C438.546 117.49 439.756 118.832 440.653 120.516C441.549 122.19 442.038 124.088 442.118 126.209C442.201 128.372 441.834 130.383 441.019 132.239C440.203 134.085 439.059 135.564 437.586 136.677C436.631 137.386 435.583 137.906 434.443 138.238C433.303 138.569 431.901 138.767 430.238 138.83L419.142 139.253ZM429.273 137.458C430.691 137.404 431.867 137.172 432.801 136.763C433.746 136.343 434.554 135.704 435.226 134.845C435.968 133.856 436.508 132.63 436.847 131.165C437.197 129.689 437.336 128.024 437.265 126.169C437.195 124.315 436.931 122.718 436.474 121.38C436.017 120.031 435.372 118.919 434.538 118.043C433.782 117.261 432.875 116.708 431.817 116.386C430.758 116.063 429.435 115.932 427.847 115.993L425.193 116.094L425.939 135.68C425.966 136.372 426.224 136.854 426.715 137.123C427.216 137.392 428.069 137.504 429.273 137.458Z" fill="white"/>
<path d="M468.932 128.153L464.596 128.318L463.857 117.034L468.854 116.844L468.932 128.153L468.932 128.153Z" fill="white"/>
<path d="M464.872 135.005L469.21 134.84L469.045 130.502L464.707 130.667L464.872 135.005Z" fill="white"/>
<path d="M503.111 136.39C500.766 136.479 498.683 136.035 496.864 135.059C495.044 134.082 493.598 132.685 492.525 130.869C491.463 129.052 490.885 126.923 490.792 124.482C490.722 122.628 490.945 120.916 491.462 119.349C491.989 117.781 492.764 116.412 493.787 115.241C494.81 114.071 496.039 113.149 497.476 112.475C498.913 111.801 500.505 111.431 502.253 111.364C503.532 111.316 504.791 111.438 506.03 111.733C507.279 112.016 508.406 112.454 509.411 113.045L509.538 113.04L510.964 111.369L511.699 111.341L511.984 118.807L510.785 118.853C510.571 118.285 510.343 117.77 510.101 117.31C509.859 116.839 509.608 116.411 509.348 116.026C508.557 114.882 507.645 114.068 506.613 113.584C505.58 113.1 504.377 112.885 503.002 112.937C500.476 113.033 498.576 114.029 497.303 115.924C496.031 117.819 495.461 120.52 495.595 124.027C495.729 127.544 496.504 130.232 497.919 132.088C499.345 133.934 501.305 134.809 503.799 134.714C505.079 134.666 506.22 134.361 507.223 133.799C508.237 133.227 509.071 132.427 509.726 131.398C510.089 130.84 510.396 130.215 510.647 129.522C510.908 128.818 511.092 128.053 511.2 127.227L512.303 127.185L512.627 135.691L511.684 135.727L510.214 133.701C509.084 134.588 507.951 135.245 506.814 135.672C505.678 136.1 504.443 136.339 503.111 136.39ZM513.929 135.641L513.895 134.746C514.954 134.524 515.746 134.281 516.269 134.015C516.803 133.749 517.201 133.387 517.461 132.929C517.731 132.47 517.996 131.841 518.253 131.041L523.705 114.438L522.525 112.033L526.248 110.146L535.741 131.96C535.952 132.443 536.174 132.808 536.407 133.056C536.641 133.303 536.962 133.477 537.372 133.579C537.792 133.681 538.376 133.749 539.125 133.785L539.159 134.68L527.839 135.111L527.805 134.216C528.794 134.125 529.543 134.022 530.051 133.906C530.559 133.78 530.849 133.556 530.922 133.233C530.995 132.899 530.884 132.369 530.589 131.644L524.623 117.093L524.527 117.096L519.943 131.249C519.723 131.941 519.67 132.498 519.782 132.921C519.894 133.333 520.221 133.651 520.763 133.876C521.305 134.09 522.107 134.262 523.169 134.393L523.203 135.288L513.929 135.641ZM520.542 127.239L520.485 125.737L529.726 125.384L529.784 126.887L520.542 127.239ZM550.249 134.594C548.501 134.66 546.94 134.448 545.565 133.956C544.191 133.453 543.106 132.72 542.311 131.758C541.842 131.199 541.486 130.535 541.243 129.765C541.01 128.984 540.869 127.933 540.818 126.611L540.252 111.758L537.447 111.256L537.413 110.361L547.262 109.986L547.296 110.881L544.505 111.596L545.081 126.705C545.16 128.783 545.732 130.352 546.797 131.411C547.862 132.459 549.279 132.949 551.048 132.882C553.244 132.798 554.797 132.083 555.706 130.735C556.141 130.11 556.44 129.266 556.602 128.203C556.764 127.13 556.812 125.719 556.745 123.971L556.257 111.148L553.42 110.648L553.386 109.752L560.676 109.474L560.71 110.37L557.904 111.085L558.451 125.443C558.499 126.722 558.43 127.835 558.242 128.781C558.064 129.727 557.77 130.55 557.359 131.249C556.736 132.265 555.816 133.063 554.6 133.643C553.394 134.212 551.944 134.529 550.249 134.594ZM568.916 133.546L568.882 132.651L572.485 131.841L571.673 110.513L565.821 110.736C565.173 111.646 564.627 112.606 564.185 113.616C563.754 114.625 563.401 115.578 563.126 116.474L562.15 116.511L563.048 109.384L584.28 108.575L585.717 115.614L584.758 115.65C584.415 114.777 583.99 113.854 583.483 112.881C582.987 111.907 582.381 110.99 581.665 110.132L575.878 110.352L576.69 131.681L580.281 132.217L580.315 133.112L568.916 133.546ZM588.049 132.817L588.015 131.922L590.788 131.16L589.977 109.863L587.156 109.362L587.122 108.467L596.89 108.095L596.925 108.99L594.198 109.702L595.009 130.999L597.784 131.55L597.818 132.445L588.049 132.817ZM612.265 132.231C610.485 132.299 608.858 132.04 607.384 131.456C605.91 130.872 604.629 130.029 603.541 128.929C602.453 127.828 601.597 126.531 600.975 125.039C600.362 123.536 600.023 121.911 599.956 120.163C599.889 118.404 600.104 116.757 600.601 115.223C601.108 113.687 601.862 112.33 602.863 111.149C603.864 109.969 605.078 109.037 606.503 108.353C607.929 107.658 609.531 107.277 611.311 107.209C613.102 107.141 614.734 107.399 616.208 107.983C617.693 108.556 618.979 109.393 620.067 110.494C621.155 111.595 622.005 112.891 622.617 114.384C623.239 115.876 623.584 117.501 623.651 119.26C623.718 121.008 623.498 122.655 622.991 124.201C622.494 125.735 621.745 127.093 620.744 128.273C619.743 129.453 618.525 130.391 617.089 131.086C615.664 131.781 614.056 132.163 612.265 132.231ZM612.203 130.616C613.184 130.579 614.04 130.359 614.772 129.958C615.514 129.545 616.144 128.987 616.662 128.284C617.19 127.581 617.613 126.765 617.929 125.834C618.246 124.904 618.469 123.892 618.598 122.799C618.727 121.705 618.77 120.572 618.725 119.399C618.68 118.227 618.552 117.111 618.341 116.052C618.13 114.982 617.831 114 617.444 113.108C617.069 112.215 616.596 111.443 616.027 110.792C615.458 110.141 614.788 109.644 614.017 109.299C613.246 108.955 612.376 108.802 611.406 108.839C610.425 108.876 609.563 109.096 608.821 109.497C608.089 109.899 607.459 110.451 606.93 111.155C606.412 111.847 605.995 112.658 605.678 113.588C605.361 114.507 605.138 115.509 605.008 116.592C604.889 117.664 604.852 118.786 604.896 119.958C604.941 121.131 605.064 122.258 605.265 123.339C605.477 124.409 605.776 125.396 606.163 126.299C606.549 127.202 607.027 127.984 607.597 128.646C608.166 129.297 608.831 129.8 609.592 130.155C610.363 130.499 611.233 130.653 612.203 130.616ZM646.809 131.091L630.425 110.82L631.142 129.638L633.981 130.17L634.015 131.066L626.708 131.344L626.674 130.449L629.495 129.701L628.683 108.388L625.83 107.889L625.796 106.993L633.103 106.715L646.338 122.927L645.759 107.738L642.922 107.237L642.888 106.342L650.195 106.064L650.229 106.959L647.406 107.675L648.296 131.034L646.809 131.091Z" fill="white"/>
<path d="M676.782 120.233L672.445 120.398L671.707 109.115L676.703 108.924L676.782 120.233L676.782 120.233Z" fill="white"/>
<path d="M672.721 127.085L677.059 126.92L676.894 122.582L672.556 122.747L672.721 127.085Z" fill="white"/>
<path d="M698.908 128.593L698.873 127.666L701.567 126.955L700.755 105.642L698.014 105.138L697.98 104.243L706.182 103.93C707.93 103.864 709.447 103.881 710.731 103.981C712.016 104.082 713.145 104.284 714.117 104.589C715.099 104.882 715.991 105.297 716.79 105.832C718.312 106.831 719.521 108.172 720.418 109.857C721.314 111.53 721.803 113.428 721.884 115.549C721.966 117.713 721.6 119.723 720.785 121.579C719.969 123.425 718.825 124.904 717.351 126.017C716.396 126.726 715.348 127.246 714.208 127.578C713.068 127.91 711.667 128.107 710.004 128.17L698.908 128.593ZM709.039 126.798C710.456 126.744 711.633 126.512 712.567 126.103C713.512 125.683 714.32 125.044 714.992 124.186C715.733 123.197 716.274 121.97 716.613 120.505C716.962 119.029 717.102 117.364 717.031 115.51C716.96 113.655 716.697 112.059 716.24 110.72C715.783 109.371 715.137 108.259 714.303 107.384C713.548 106.601 712.641 106.049 711.582 105.726C710.524 105.403 709.201 105.272 707.613 105.333L704.958 105.434L705.705 125.02C705.731 125.713 705.99 126.194 706.48 126.463C706.982 126.732 707.834 126.844 709.039 126.798ZM722.216 127.705L722.182 126.81C723.241 126.588 724.032 126.344 724.555 126.079C725.09 125.813 725.487 125.451 725.747 124.993C726.018 124.534 726.282 123.905 726.54 123.105L731.991 106.501L730.811 104.097L734.534 102.21L744.027 124.024C744.238 124.507 744.46 124.872 744.694 125.119C744.927 125.367 745.249 125.541 745.658 125.643C746.078 125.744 746.663 125.813 747.411 125.848L747.445 126.744L736.126 127.175L736.091 126.28C737.081 126.189 737.829 126.085 738.337 125.97C738.845 125.844 739.135 125.619 739.208 125.296C739.281 124.963 739.17 124.433 738.876 123.708L732.909 109.156L732.813 109.16L728.229 123.313C728.01 124.004 727.956 124.562 728.068 124.984C728.18 125.396 728.507 125.715 729.049 125.94C729.591 126.154 730.393 126.326 731.455 126.456L731.489 127.352L722.216 127.705ZM728.829 119.303L728.771 117.8L738.013 117.448L738.07 118.951L728.829 119.303ZM768.408 126.457L752.024 106.186L752.742 125.005L755.58 125.537L755.614 126.433L748.307 126.711L748.273 125.816L751.095 125.068L750.283 103.755L747.43 103.255L747.395 102.36L754.702 102.082L767.937 118.293L767.358 103.104L764.521 102.604L764.487 101.709L771.794 101.43L771.828 102.326L769.005 103.042L769.895 126.401L768.408 126.457ZM786.951 125.575C784.616 125.664 782.54 125.23 780.721 124.275C778.912 123.309 777.471 121.928 776.4 120.133C775.327 118.327 774.746 116.225 774.654 113.826C774.584 111.972 774.822 110.255 775.371 108.675C775.919 107.085 776.714 105.694 777.757 104.501C778.811 103.308 780.073 102.369 781.541 101.683C783.009 100.987 784.627 100.605 786.397 100.538C787.697 100.488 788.924 100.612 790.078 100.91C791.231 101.207 792.182 101.652 792.93 102.242L793.058 102.237L794.564 100.563L795.395 100.531L795.68 107.998L794.656 108.037C793.905 106.539 793.156 105.356 792.408 104.488C791.659 103.609 790.845 102.989 789.967 102.627C789.099 102.265 788.09 102.106 786.939 102.15C784.359 102.249 782.449 103.255 781.209 105.171C779.98 107.085 779.436 109.892 779.577 113.591C779.715 117.204 780.408 119.857 781.657 121.549C782.917 123.231 784.767 124.025 787.208 123.932C788.189 123.894 789.062 123.701 789.828 123.352C790.593 122.992 791.151 122.501 791.501 121.879C791.623 121.703 791.695 121.508 791.719 121.294C791.753 121.069 791.76 120.695 791.74 120.172L791.519 114.353L788.649 113.854L788.615 112.958L798.496 112.582L798.53 113.477L795.739 114.192L796.049 122.314C795.452 122.892 794.656 123.424 793.66 123.91C792.675 124.385 791.595 124.773 790.422 125.074C789.259 125.364 788.102 125.531 786.951 125.575ZM801.146 124.698L801.112 123.802L803.806 123.059L802.994 101.747L800.252 101.243L800.218 100.347L818.573 99.6479L819.414 106.581L818.406 106.619C818.107 105.755 817.747 104.856 817.327 103.922C816.917 102.977 816.429 102.078 815.863 101.224L807.197 101.554L808.012 122.947L816.502 122.623C817.115 121.607 817.605 120.601 817.972 119.605C818.351 118.609 818.702 117.608 819.027 116.603L820.322 116.554L819.357 124.004L801.146 124.698ZM813.968 115.771C813.827 115.157 813.643 114.545 813.417 113.935C813.191 113.313 812.906 112.705 812.563 112.11L807.143 112.316L807.088 110.861L812.508 110.655C812.815 110.024 813.052 109.396 813.22 108.77C813.388 108.134 813.525 107.515 813.63 106.913L814.621 106.876L814.959 115.733L813.968 115.771ZM823.567 123.843L823.533 122.948L826.226 122.173L825.416 100.924L822.674 100.388L822.64 99.493L832.984 99.0988C834.636 99.0359 836.107 99.2467 837.395 99.7313C838.694 100.205 839.721 100.945 840.474 101.952C841.238 102.947 841.648 104.197 841.706 105.7C841.765 107.256 841.377 108.562 840.542 109.619C839.717 110.664 838.53 111.435 836.98 111.932L843.83 121.534L847.164 122.048L847.198 122.943L839.588 123.233L832.378 112.62L830.076 112.707L830.431 122.013L834.07 122.546L834.104 123.442L823.567 123.843ZM830.021 111.268L831.412 111.215C832.659 111.168 833.645 110.976 834.368 110.638C835.092 110.301 835.673 109.863 836.112 109.323C836.561 108.783 836.869 108.189 837.037 107.543C837.214 106.885 837.29 106.22 837.265 105.549C837.218 104.323 836.924 103.32 836.382 102.54C835.839 101.76 835.119 101.211 834.221 100.893C833.853 100.758 833.45 100.672 833.011 100.635C832.582 100.587 832.042 100.576 831.392 100.601L829.617 100.668L830.021 111.268ZM851.091 122.795L851.057 121.899C852.116 121.677 852.907 121.434 853.431 121.168C853.965 120.902 854.362 120.54 854.622 120.082C854.893 119.624 855.157 118.994 855.415 118.195L860.867 101.591L859.686 99.1862L863.409 97.2991L872.903 119.113C873.113 119.596 873.335 119.962 873.569 120.209C873.802 120.456 874.124 120.631 874.533 120.733C874.954 120.834 875.538 120.902 876.286 120.938L876.321 121.833L865.001 122.265L864.967 121.369C865.956 121.278 866.705 121.175 867.213 121.059C867.72 120.933 868.01 120.709 868.084 120.386C868.156 120.052 868.045 119.523 867.751 118.797L861.784 104.246L861.689 104.25L857.104 118.402C856.885 119.094 856.831 119.651 856.944 120.074C857.055 120.486 857.382 120.804 857.925 121.029C858.467 121.243 859.268 121.416 860.33 121.546L860.364 122.441L851.091 122.795ZM857.704 114.393L857.647 112.89L866.888 112.538L866.945 114.041L857.704 114.393ZM892.707 121.209L892.673 120.314L895.43 119.552L894.619 98.2555L891.814 97.7539L891.779 96.8586L901.532 96.4869L901.568 97.4143L898.84 98.0946L899.651 119.391L902.427 119.958L902.46 120.837L892.707 121.209ZM877.214 121.799L877.18 120.904L879.953 120.142L879.142 98.8452L876.321 98.3442L876.287 97.4489L886.056 97.0767L886.09 97.972L883.363 98.6843L884.174 119.981L886.949 120.532L886.983 121.427L877.214 121.799ZM881.726 109.523L881.669 108.02L897.082 107.432L897.139 108.935L881.726 109.523ZM905.289 120.729L905.255 119.834L907.949 119.091L907.137 97.7785L904.396 97.2745L904.362 96.3791L922.716 95.6798L923.557 102.613L922.55 102.651C922.25 101.787 921.89 100.888 921.47 99.9543C921.06 99.0092 920.573 98.1098 920.006 97.2561L911.341 97.5863L912.156 118.979L920.645 118.655C921.258 117.639 921.748 116.633 922.116 115.637C922.494 114.641 922.845 113.64 923.17 112.635L924.465 112.585L923.5 120.036L905.289 120.729ZM918.111 111.803C917.97 111.189 917.787 110.577 917.56 109.966C917.334 109.345 917.049 108.737 916.706 108.142L911.286 108.348L911.231 106.893L916.651 106.687C916.958 106.056 917.195 105.428 917.364 104.802C917.532 104.166 917.668 103.547 917.773 102.945L918.765 102.907L919.102 111.765L918.111 111.803ZM925.568 119.957L925.534 119.061C926.593 118.84 927.384 118.596 927.908 118.331C928.442 118.065 928.839 117.703 929.099 117.244C929.37 116.786 929.634 116.157 929.892 115.357L935.344 98.7532L934.163 96.3484L937.886 94.4613L947.38 116.276C947.59 116.759 947.812 117.124 948.046 117.371C948.28 117.618 948.601 117.793 949.011 117.895C949.431 117.996 950.015 118.065 950.764 118.1L950.798 118.995L939.478 119.427L939.444 118.531C940.433 118.44 941.182 118.337 941.69 118.222C942.197 118.096 942.488 117.871 942.561 117.548C942.633 117.214 942.523 116.685 942.228 115.96L936.262 101.408L936.166 101.412L931.581 115.565C931.362 116.256 931.309 116.813 931.421 117.236C931.533 117.648 931.86 117.966 932.402 118.191C932.944 118.406 933.746 118.578 934.807 118.708L934.841 119.603L925.568 119.957ZM932.181 111.555L932.124 110.052L941.365 109.7L941.422 111.203L932.181 111.555ZM951.756 118.959L951.72 118.032L954.415 117.321L953.603 96.008L950.862 95.504L950.828 94.6087L959.03 94.2961C960.778 94.2295 962.294 94.2465 963.579 94.347C964.864 94.4475 965.992 94.65 966.965 94.9545C967.947 95.248 968.838 95.6623 969.638 96.1976C971.16 97.1964 972.369 98.538 973.266 100.222C974.162 101.896 974.651 103.794 974.732 105.915C974.814 108.078 974.448 110.089 973.632 111.945C972.817 113.791 971.672 115.27 970.199 116.383C969.244 117.092 968.196 117.612 967.056 117.944C965.916 118.275 964.514 118.473 962.852 118.536L951.756 118.959ZM961.887 117.164C963.304 117.11 964.48 116.878 965.415 116.469C966.359 116.049 967.168 115.41 967.839 114.551C968.581 113.562 969.121 112.336 969.461 110.871C969.81 109.395 969.949 107.73 969.879 105.875C969.808 104.021 969.544 102.424 969.088 101.086C968.631 99.7372 967.985 98.625 967.151 97.7494C966.396 96.967 965.489 96.4144 964.43 96.0918C963.372 95.7692 962.048 95.6382 960.46 95.6987L957.806 95.7998L958.552 115.386C958.579 116.078 958.837 116.56 959.328 116.829C959.829 117.098 960.682 117.21 961.887 117.164Z" fill="white"/>
<path d="M1001.55 107.859L997.21 108.024L996.471 96.7404L1001.47 96.55L1001.55 107.859L1001.55 107.859Z" fill="white"/>
<path d="M997.486 114.711L1001.82 114.546L1001.66 110.208L997.321 110.373L997.486 114.711Z" fill="white"/>
<path d="M1035.72 116.096C1033.38 116.185 1031.3 115.741 1029.48 114.765C1027.66 113.788 1026.21 112.391 1025.14 110.575C1024.08 108.758 1023.5 106.629 1023.41 104.188C1023.34 102.334 1023.56 100.622 1024.08 99.055C1024.6 97.4871 1025.38 96.1179 1026.4 94.9475C1027.42 93.777 1028.65 92.8549 1030.09 92.181C1031.53 91.5071 1033.12 91.1369 1034.87 91.0703C1036.15 91.0216 1037.41 91.1444 1038.64 91.4388C1039.89 91.7221 1041.02 92.1595 1042.02 92.751L1042.15 92.7461L1043.58 91.0747L1044.31 91.0466L1044.6 98.5132L1043.4 98.5589C1043.18 97.9906 1042.96 97.4763 1042.72 97.0158C1042.47 96.5447 1042.22 96.1166 1041.96 95.7316C1041.17 94.5875 1040.26 93.7736 1039.23 93.2899C1038.19 92.8062 1036.99 92.5906 1035.62 92.6429C1033.09 92.7392 1031.19 93.7349 1029.92 95.6301C1028.64 97.5252 1028.07 100.226 1028.21 103.733C1028.34 107.25 1029.12 109.938 1030.53 111.794C1031.96 113.64 1033.92 114.515 1036.41 114.42C1037.69 114.372 1038.83 114.067 1039.84 113.505C1040.85 112.933 1041.68 112.133 1042.34 111.104C1042.7 110.546 1043.01 109.921 1043.26 109.228C1043.52 108.524 1043.71 107.759 1043.81 106.933L1044.92 106.891L1045.24 115.397L1044.3 115.433L1042.83 113.407C1041.7 114.294 1040.56 114.951 1039.43 115.378C1038.29 115.806 1037.06 116.045 1035.72 116.096ZM1046.54 115.347L1046.51 114.452C1047.57 114.23 1048.36 113.987 1048.88 113.721C1049.42 113.455 1049.81 113.093 1050.07 112.635C1050.35 112.176 1050.61 111.547 1050.87 110.747L1056.32 94.1438L1055.14 91.739L1058.86 89.8518L1068.35 111.666C1068.57 112.149 1068.79 112.514 1069.02 112.762C1069.25 113.009 1069.58 113.183 1069.99 113.285C1070.41 113.387 1070.99 113.455 1071.74 113.491L1071.77 114.386L1060.45 114.817L1060.42 113.922C1061.41 113.831 1062.16 113.728 1062.66 113.612C1063.17 113.486 1063.46 113.262 1063.54 112.939C1063.61 112.605 1063.5 112.075 1063.2 111.35L1057.24 96.7987L1057.14 96.8024L1052.56 110.955C1052.34 111.647 1052.28 112.204 1052.4 112.627C1052.51 113.039 1052.83 113.357 1053.38 113.582C1053.92 113.796 1054.72 113.968 1055.78 114.099L1055.82 114.994L1046.54 115.347ZM1053.16 106.945L1053.1 105.443L1062.34 105.09L1062.4 106.593L1053.16 106.945ZM1082.86 114.3C1081.11 114.366 1079.55 114.154 1078.18 113.662C1076.8 113.159 1075.72 112.426 1074.93 111.464C1074.46 110.905 1074.1 110.241 1073.86 109.471C1073.62 108.69 1073.48 107.639 1073.43 106.317L1072.87 91.4638L1070.06 90.9622L1070.03 90.0669L1079.88 89.6916L1079.91 90.5869L1077.12 91.3017L1077.69 106.411C1077.77 108.489 1078.35 110.058 1079.41 111.117C1080.48 112.165 1081.89 112.655 1083.66 112.588C1085.86 112.504 1087.41 111.789 1088.32 110.441C1088.76 109.816 1089.05 108.972 1089.22 107.909C1089.38 106.836 1089.43 105.425 1089.36 103.677L1088.87 90.854L1086.03 90.3536L1086 89.4583L1093.29 89.1805L1093.32 90.0758L1090.52 90.7912L1091.06 105.149C1091.11 106.428 1091.04 107.541 1090.86 108.487C1090.68 109.433 1090.38 110.256 1089.97 110.955C1089.35 111.971 1088.43 112.769 1087.21 113.349C1086.01 113.918 1084.56 114.235 1082.86 114.3ZM1101.53 113.252L1101.5 112.357L1105.1 111.547L1104.29 90.2185L1098.43 90.4415C1097.79 91.3522 1097.24 92.3123 1096.8 93.3219C1096.37 94.331 1096.01 95.2838 1095.74 96.1803L1094.76 96.2175L1095.66 89.0901L1116.89 88.2811L1118.33 95.3195L1117.37 95.3561C1117.03 94.4831 1116.6 93.56 1116.1 92.5866C1115.6 91.6127 1115 90.6965 1114.28 89.8378L1108.49 90.0583L1109.3 111.387L1112.9 111.923L1112.93 112.818L1101.53 113.252ZM1120.66 112.523L1120.63 111.628L1123.4 110.866L1122.59 89.5691L1119.77 89.0682L1119.74 88.1728L1129.5 87.8006L1129.54 88.696L1126.81 89.4083L1127.62 110.705L1130.4 111.256L1130.43 112.151L1120.66 112.523ZM1144.88 111.937C1143.1 112.005 1141.47 111.746 1140 111.162C1138.52 110.578 1137.24 109.735 1136.15 108.635C1135.07 107.534 1134.21 106.237 1133.59 104.745C1132.98 103.242 1132.64 101.617 1132.57 99.8686C1132.5 98.1099 1132.72 96.4632 1133.21 94.9285C1133.72 93.3934 1134.48 92.0357 1135.48 90.8554C1136.48 89.6751 1137.69 88.7429 1139.12 88.0588C1140.54 87.364 1142.15 86.9827 1143.93 86.9149C1145.72 86.8467 1147.35 87.1047 1148.82 87.689C1150.31 88.2622 1151.59 89.0992 1152.68 90.1999C1153.77 91.3006 1154.62 92.5972 1155.23 94.0897C1155.85 95.5817 1156.2 97.2071 1156.26 98.9658C1156.33 100.714 1156.11 102.361 1155.6 103.907C1155.11 105.441 1154.36 106.799 1153.36 107.979C1152.36 109.159 1151.14 110.097 1149.7 110.792C1148.28 111.487 1146.67 111.869 1144.88 111.937ZM1144.82 110.322C1145.8 110.285 1146.65 110.065 1147.39 109.664C1148.13 109.251 1148.76 108.693 1149.28 107.99C1149.8 107.287 1150.23 106.47 1150.54 105.54C1150.86 104.61 1151.08 103.598 1151.21 102.505C1151.34 101.411 1151.38 100.278 1151.34 99.1055C1151.29 97.933 1151.17 96.817 1150.95 95.7577C1150.74 94.6876 1150.44 93.7063 1150.06 92.8137C1149.68 91.9206 1149.21 91.1487 1148.64 90.4979C1148.07 89.8471 1147.4 89.3496 1146.63 89.0054C1145.86 88.6612 1144.99 88.5075 1144.02 88.5445C1143.04 88.5819 1142.18 88.8015 1141.43 89.2034C1140.7 89.6049 1140.07 90.1573 1139.54 90.8606C1139.03 91.5528 1138.61 92.3639 1138.29 93.294C1137.97 94.2134 1137.75 95.2147 1137.62 96.2977C1137.5 97.3697 1137.47 98.4919 1137.51 99.6644C1137.55 100.837 1137.68 101.964 1137.88 103.045C1138.09 104.115 1138.39 105.102 1138.78 106.005C1139.16 106.908 1139.64 107.69 1140.21 108.352C1140.78 109.003 1141.44 109.506 1142.21 109.861C1142.98 110.205 1143.85 110.359 1144.82 110.322ZM1179.42 110.797L1163.04 90.5258L1163.76 109.344L1166.59 109.876L1166.63 110.772L1159.32 111.05L1159.29 110.155L1162.11 109.407L1161.3 88.0943L1158.44 87.5946L1158.41 86.6992L1165.72 86.4208L1178.95 102.633L1178.37 87.4437L1175.54 86.9433L1175.5 86.048L1182.81 85.7696L1182.84 86.6649L1180.02 87.3809L1180.91 110.74L1179.42 110.797Z" fill="white"/>
<path d="M1209.4 99.9389L1205.06 100.104L1204.32 88.8207L1209.32 88.6304L1209.4 99.9393L1209.4 99.9389Z" fill="white"/>
<path d="M1205.34 106.791L1209.67 106.626L1209.51 102.288L1205.17 102.453L1205.34 106.791Z" fill="white"/>
<path d="M1231.52 108.299L1231.49 107.372L1234.18 106.661L1233.37 85.3482L1230.63 84.8442L1230.59 83.9489L1238.8 83.6363C1240.54 83.5697 1242.06 83.5867 1243.35 83.6872C1244.63 83.7877 1245.76 83.9902 1246.73 84.2947C1247.71 84.5882 1248.6 85.0025 1249.4 85.5378C1250.93 86.5366 1252.14 87.8782 1253.03 89.5626C1253.93 91.2364 1254.42 93.1338 1254.5 95.2549C1254.58 97.4187 1254.21 99.4288 1253.4 101.285C1252.58 103.131 1251.44 104.61 1249.96 105.723C1249.01 106.432 1247.96 106.952 1246.82 107.284C1245.68 107.616 1244.28 107.813 1242.62 107.876L1231.52 108.299ZM1241.65 106.504C1243.07 106.45 1244.25 106.219 1245.18 105.809C1246.13 105.389 1246.93 104.75 1247.61 103.892C1248.35 102.903 1248.89 101.676 1249.23 100.211C1249.58 98.7355 1249.72 97.0703 1249.64 95.2157C1249.57 93.361 1249.31 91.7646 1248.85 90.4263C1248.4 89.0774 1247.75 87.9652 1246.92 87.0896C1246.16 86.3072 1245.25 85.7546 1244.2 85.432C1243.14 85.1094 1241.81 84.9784 1240.23 85.0389L1237.57 85.14L1238.32 104.726C1238.34 105.419 1238.6 105.9 1239.09 106.169C1239.6 106.438 1240.45 106.55 1241.65 106.504ZM1254.83 107.411L1254.8 106.516C1255.85 106.294 1256.65 106.05 1257.17 105.785C1257.7 105.519 1258.1 105.157 1258.36 104.699C1258.63 104.24 1258.9 103.611 1259.15 102.811L1264.61 86.2075L1263.42 83.8027L1267.15 81.9156L1276.64 103.73C1276.85 104.213 1277.07 104.578 1277.31 104.825C1277.54 105.073 1277.86 105.247 1278.27 105.349C1278.69 105.45 1279.28 105.519 1280.03 105.554L1280.06 106.45L1268.74 106.881L1268.71 105.986C1269.69 105.895 1270.44 105.791 1270.95 105.676C1271.46 105.55 1271.75 105.325 1271.82 105.002C1271.89 104.669 1271.78 104.139 1271.49 103.414L1265.52 88.8625L1265.43 88.8661L1260.84 103.019C1260.62 103.71 1260.57 104.268 1260.68 104.69C1260.79 105.102 1261.12 105.421 1261.66 105.646C1262.21 105.86 1263.01 106.032 1264.07 106.162L1264.1 107.058L1254.83 107.411ZM1261.44 99.0092L1261.39 97.5063L1270.63 97.1542L1270.68 98.6571L1261.44 99.0092ZM1301.02 106.163L1284.64 85.8925L1285.36 104.711L1288.19 105.243L1288.23 106.139L1280.92 106.417L1280.89 105.522L1283.71 104.774L1282.9 83.4611L1280.04 82.9613L1280.01 82.066L1287.32 81.7876L1300.55 97.9994L1299.97 82.8105L1297.13 82.3101L1297.1 81.4148L1304.41 81.1364L1304.44 82.0317L1301.62 82.7477L1302.51 106.107L1301.02 106.163ZM1319.56 105.281C1317.23 105.37 1315.15 104.936 1313.33 103.981C1311.53 103.015 1310.09 101.634 1309.01 99.8386C1307.94 98.0327 1307.36 95.9307 1307.27 93.5324C1307.2 91.6778 1307.44 89.9608 1307.98 88.3814C1308.53 86.7914 1309.33 85.4001 1310.37 84.2075C1311.43 83.0145 1312.69 82.0752 1314.15 81.3894C1315.62 80.693 1317.24 80.3111 1319.01 80.2437C1320.31 80.1942 1321.54 80.3182 1322.69 80.6158C1323.84 80.9135 1324.8 81.3576 1325.54 81.9482L1325.67 81.9433L1327.18 80.2688L1328.01 80.2371L1328.29 87.7037L1327.27 87.7427C1326.52 86.2448 1325.77 85.0618 1325.02 84.1937C1324.27 83.3149 1323.46 82.6948 1322.58 82.3333C1321.71 81.9714 1320.7 81.8124 1319.55 81.8562C1316.97 81.9545 1315.06 82.9613 1313.82 84.8766C1312.59 86.7914 1312.05 89.5982 1312.19 93.2968C1312.33 96.9102 1313.02 99.5631 1314.27 101.255C1315.53 102.937 1317.38 103.731 1319.82 103.638C1320.8 103.6 1321.68 103.407 1322.44 103.058C1323.21 102.698 1323.76 102.207 1324.11 101.585C1324.24 101.409 1324.31 101.215 1324.33 101C1324.37 100.775 1324.37 100.401 1324.35 99.8785L1324.13 94.0587L1321.26 93.5596L1321.23 92.6642L1331.11 92.2877L1331.14 93.1831L1328.35 93.8979L1328.66 102.02C1328.07 102.598 1327.27 103.13 1326.27 103.616C1325.29 104.091 1324.21 104.479 1323.04 104.78C1321.87 105.07 1320.72 105.237 1319.56 105.281ZM1333.76 104.404L1333.73 103.508L1336.42 102.765L1335.61 81.4527L1332.87 80.9487L1332.83 80.0533L1351.19 79.3539L1352.03 86.287L1351.02 86.3253C1350.72 85.4615 1350.36 84.5625 1349.94 83.6285C1349.53 82.6834 1349.04 81.784 1348.48 80.9303L1339.81 81.2605L1340.63 102.653L1349.12 102.329C1349.73 101.313 1350.22 100.307 1350.59 99.3113C1350.96 98.3148 1351.32 97.314 1351.64 96.309L1352.94 96.2596L1351.97 103.71L1333.76 104.404ZM1346.58 95.477C1346.44 94.8632 1346.26 94.2511 1346.03 93.6406C1345.8 93.0194 1345.52 92.4112 1345.18 91.8158L1339.76 92.0223L1339.7 90.5674L1345.12 90.3609C1345.43 89.7301 1345.67 89.1019 1345.83 88.4764C1346 87.8402 1346.14 87.2212 1346.24 86.6194L1347.24 86.5816L1347.57 95.4392L1346.58 95.477ZM1356.18 103.549L1356.15 102.654L1358.84 101.879L1358.03 80.6303L1355.29 80.0943L1355.25 79.199L1365.6 78.8048C1367.25 78.7419 1368.72 78.9527 1370.01 79.4373C1371.31 79.9109 1372.33 80.651 1373.09 81.6577C1373.85 82.6534 1374.26 83.9026 1374.32 85.4056C1374.38 86.9618 1373.99 88.2681 1373.16 89.3247C1372.33 90.3702 1371.14 91.1413 1369.59 91.638L1376.44 101.24L1379.78 101.754L1379.81 102.649L1372.2 102.939L1364.99 92.3257L1362.69 92.4134L1363.04 101.719L1366.68 102.253L1366.72 103.148L1356.18 103.549ZM1362.64 90.9745L1364.03 90.9215C1365.27 90.874 1366.26 90.6816 1366.98 90.3445C1367.71 90.0074 1368.29 89.5689 1368.73 89.0292C1369.17 88.489 1369.48 87.8955 1369.65 87.2487C1369.83 86.5908 1369.9 85.926 1369.88 85.2545C1369.83 84.0288 1369.54 83.0259 1369 82.246C1368.45 81.4661 1367.73 80.9171 1366.84 80.599C1366.47 80.4636 1366.06 80.3776 1365.62 80.3409C1365.2 80.2932 1364.66 80.2818 1364.01 80.3065L1362.23 80.3742L1362.64 90.9745ZM1383.7 102.501L1383.67 101.605C1384.73 101.383 1385.52 101.14 1386.04 100.874C1386.58 100.608 1386.98 100.246 1387.24 99.7882C1387.51 99.3295 1387.77 98.7004 1388.03 97.9006L1393.48 81.297L1392.3 78.8922L1396.02 77.0051L1405.52 98.8195C1405.73 99.3025 1405.95 99.6676 1406.18 99.9149C1406.42 100.162 1406.74 100.337 1407.15 100.439C1407.57 100.54 1408.15 100.608 1408.9 100.644L1408.93 101.539L1397.61 101.971L1397.58 101.075C1398.57 100.984 1399.32 100.881 1399.83 100.766C1400.33 100.639 1400.62 100.415 1400.7 100.092C1400.77 99.7582 1400.66 99.2287 1400.36 98.5034L1394.4 83.952L1394.3 83.9557L1389.72 98.1085C1389.5 98.8 1389.45 99.3571 1389.56 99.7798C1389.67 100.192 1390 100.51 1390.54 100.735C1391.08 100.949 1391.88 101.122 1392.94 101.252L1392.98 102.147L1383.7 102.501ZM1390.32 94.0987L1390.26 92.5958L1399.5 92.2437L1399.56 93.7466L1390.32 94.0987ZM1425.32 100.915L1425.29 100.02L1428.04 99.258L1427.23 77.9615L1424.43 77.4599L1424.39 76.5646L1434.15 76.193L1434.18 77.1203L1431.45 77.8007L1432.26 99.0972L1435.04 99.6639L1435.07 100.543L1425.32 100.915ZM1409.83 101.505L1409.79 100.61L1412.57 99.8477L1411.76 78.5512L1408.93 78.0503L1408.9 77.1549L1418.67 76.7827L1418.7 77.678L1415.98 78.3904L1416.79 99.6869L1419.56 100.238L1419.6 101.133L1409.83 101.505ZM1414.34 89.2285L1414.28 87.7256L1429.7 87.1384L1429.75 88.6413L1414.34 89.2285ZM1437.9 100.436L1437.87 99.5402L1440.56 98.7971L1439.75 77.4845L1437.01 76.9805L1436.98 76.0852L1455.33 75.3858L1456.17 82.3188L1455.16 82.3572C1454.86 81.4933 1454.5 80.5944 1454.08 79.6604C1453.67 78.7153 1453.19 77.8159 1452.62 76.9621L1443.95 77.2923L1444.77 98.6848L1453.26 98.3613C1453.87 97.3453 1454.36 96.3392 1454.73 95.3431C1455.11 94.3467 1455.46 93.3459 1455.78 92.3408L1457.08 92.2915L1456.11 99.7416L1437.9 100.436ZM1450.72 91.5089C1450.58 90.8951 1450.4 90.283 1450.17 89.6725C1449.95 89.0513 1449.66 88.443 1449.32 87.8477L1443.9 88.0542L1443.84 86.5992L1449.26 86.3927C1449.57 85.7619 1449.81 85.1338 1449.98 84.5082C1450.15 83.872 1450.28 83.2531 1450.39 82.6513L1451.38 82.6135L1451.72 91.4711L1450.72 91.5089ZM1458.18 99.6628L1458.15 98.7675C1459.21 98.5457 1460 98.302 1460.52 98.0366C1461.06 97.7707 1461.45 97.4086 1461.71 96.9504C1461.98 96.4918 1462.25 95.8626 1462.51 95.0629L1467.96 78.4592L1466.78 76.0544L1470.5 74.1673L1479.99 95.9817C1480.2 96.4647 1480.43 96.8298 1480.66 97.0771C1480.89 97.3244 1481.21 97.4989 1481.62 97.6008C1482.04 97.7022 1482.63 97.7706 1483.38 97.8062L1483.41 98.7015L1472.09 99.1328L1472.06 98.2375C1473.05 98.1464 1473.8 98.0432 1474.3 97.9277C1474.81 97.8017 1475.1 97.5771 1475.17 97.2541C1475.25 96.9204 1475.14 96.3909 1474.84 95.6656L1468.88 81.1142L1468.78 81.1179L1464.2 95.2707C1463.98 95.9622 1463.92 96.5193 1464.03 96.942C1464.15 97.3541 1464.47 97.6725 1465.02 97.8974C1465.56 98.1115 1466.36 98.2838 1467.42 98.4141L1467.46 99.3095L1458.18 99.6628ZM1464.79 91.261L1464.74 89.758L1473.98 89.4059L1474.04 90.9088L1464.79 91.261ZM1484.37 98.665L1484.33 97.7377L1487.03 97.0266L1486.22 75.714L1483.48 75.21L1483.44 74.3147L1491.64 74.0022C1493.39 73.9356 1494.91 73.9525 1496.19 74.053C1497.48 74.1535 1498.61 74.356 1499.58 74.6605C1500.56 74.954 1501.45 75.3684 1502.25 75.9036C1503.77 76.9024 1504.98 78.244 1505.88 79.9284C1506.78 81.6022 1507.26 83.4996 1507.35 85.6207C1507.43 87.7845 1507.06 89.7946 1506.25 91.651C1505.43 93.4967 1504.29 94.976 1502.81 96.0889C1501.86 96.7978 1500.81 97.3181 1499.67 97.6497C1498.53 97.9814 1497.13 98.1789 1495.47 98.2422L1484.37 98.665ZM1494.5 96.87C1495.92 96.816 1497.09 96.5843 1498.03 96.1751C1498.97 95.7549 1499.78 95.1156 1500.45 94.2574C1501.19 93.2685 1501.74 92.0417 1502.07 90.577C1502.42 89.1013 1502.56 87.4361 1502.49 85.5815C1502.42 83.7268 1502.16 82.1304 1501.7 80.7921C1501.24 79.4432 1500.6 78.331 1499.76 77.4554C1499.01 76.673 1498.1 76.1205 1497.04 75.7979C1495.99 75.4752 1494.66 75.3442 1493.07 75.4047L1490.42 75.5058L1491.17 95.0916C1491.19 95.7845 1491.45 96.2656 1491.94 96.5352C1492.44 96.8043 1493.3 96.9159 1494.5 96.87Z" fill="white"/>
<rect x="-188.647" y="34.5825" width="1782" height="55" transform="rotate(1.97511 -188.647 34.5825)" fill="#313131"/>
<path d="M12.8538 71.3527L8.51669 71.2031L8.59814 59.8958L13.5952 60.0682L12.8538 71.3531L12.8538 71.3527Z" fill="white"/>
<path d="M8.3076 77.8927L12.646 78.0423L12.7956 73.7039L8.45721 73.5543L8.3076 77.8927Z" fill="white"/>
<path d="M34.3155 81.2949L34.3475 80.3675L37.0869 79.8536L37.8219 58.5382L35.1245 57.8369L35.1554 56.9414L43.3585 57.2243C45.1068 57.2846 46.618 57.4114 47.8921 57.6048C49.1662 57.7981 50.2771 58.0819 51.2247 58.4561C52.1834 58.8201 53.0421 59.2979 53.8009 59.8898C55.2462 60.9962 56.3551 62.422 57.1274 64.167C57.9001 65.9013 58.2499 67.8292 58.1767 69.9506C58.1021 72.1146 57.5909 74.0928 56.6433 75.8852C55.696 77.667 54.4472 79.0594 52.8971 80.0626C51.8931 80.7004 50.8106 81.1433 49.6493 81.3915C48.4881 81.6396 47.076 81.735 45.4129 81.6776L34.3155 81.2949ZM44.55 80.239C45.9678 80.2879 47.1576 80.1422 48.1192 79.8018C49.0919 79.4511 49.9443 78.8721 50.6766 78.0649C51.4879 77.1323 52.1157 75.9479 52.5602 74.5117C53.0156 73.0652 53.2753 71.4145 53.3393 69.5596C53.4033 67.7047 53.2561 66.0933 52.8977 64.7255C52.5396 63.347 51.9765 62.1909 51.2082 61.2572C50.5112 60.422 49.6466 59.8052 48.6144 59.4067C47.5822 59.0082 46.2719 58.7816 44.6835 58.7268L42.0291 58.6353L41.3536 78.2237C41.3297 78.9166 41.5526 79.4152 42.0224 79.7196C42.5029 80.0243 43.3454 80.1975 44.55 80.239ZM57.6264 82.0988L57.6573 81.2033C58.7296 81.0589 59.5365 80.8732 60.0779 80.6464C60.6301 80.42 61.0525 80.0877 61.3451 79.6495C61.6483 79.2117 61.9575 78.6033 62.2725 77.8244L68.9136 61.6597L67.9106 59.1756L71.7605 57.5634L79.6476 80.0085C79.8225 80.5055 80.0175 80.8858 80.2326 81.1494C80.4476 81.4129 80.7557 81.6103 81.1567 81.7416C81.5684 81.8732 82.1463 81.9838 82.8903 82.0735L82.8594 82.969L71.5382 82.5786L71.569 81.6831C72.5623 81.664 73.3164 81.6153 73.8314 81.537C74.3468 81.448 74.6526 81.2451 74.749 80.9282C74.8456 80.6007 74.7734 80.0646 74.5323 79.3198L69.6365 64.3742L69.5405 64.3709L63.9421 78.1541C63.6734 78.8279 63.5797 79.3797 63.6609 79.8094C63.7425 80.2285 64.0456 80.5698 64.5702 80.8334C65.0951 81.0863 65.8823 81.3162 66.9318 81.5232L66.9009 82.4186L57.6264 82.0988ZM64.831 74.1984L64.8828 72.6953L74.1253 73.0141L74.0735 74.5172L64.831 74.1984ZM103.788 84.203L88.9167 62.7978L88.2677 81.6186L91.06 82.3553L91.0291 83.2507L83.7214 82.9987L83.7523 82.1033L86.6207 81.5618L87.3557 60.2465L84.5464 59.5412L84.5773 58.6457L91.8849 58.8978L103.91 76.0264L104.434 60.8354L101.64 60.1307L101.671 59.2352L108.979 59.4872L108.948 60.3827L106.081 60.8922L105.275 84.2543L103.788 84.203ZM122.345 84.6669C120.011 84.5864 117.971 84.0037 116.226 82.919C114.492 81.8239 113.156 80.3423 112.217 78.4741C111.278 76.5953 110.85 74.4567 110.933 72.0581C110.997 70.2032 111.36 68.508 112.021 66.9726C112.683 65.4264 113.577 64.0965 114.704 62.9827C115.842 61.8692 117.168 61.0237 118.682 60.4462C120.196 59.8581 121.839 59.5945 123.608 59.6556C124.909 59.7004 126.123 59.9131 127.252 60.2935C128.381 60.674 129.297 61.1859 130.001 61.8292L130.129 61.8336L131.752 60.2726L132.583 60.3013L132.326 67.7688L131.302 67.7335C130.662 66.1852 130 64.951 129.317 64.0309C128.634 63.1001 127.867 62.4227 127.017 61.9985C126.178 61.5746 125.183 61.3428 124.032 61.3031C121.452 61.2142 119.474 62.0799 118.099 63.9002C116.734 65.7209 115.987 68.4808 115.86 72.18C115.735 75.7938 116.235 78.49 117.358 80.2684C118.492 82.0365 120.28 82.9627 122.721 83.0469C123.702 83.0807 124.587 82.9511 125.376 82.6582C126.166 82.3545 126.758 81.9053 127.152 81.3106C127.286 81.1444 127.372 80.9553 127.412 80.7432C127.462 80.5208 127.496 80.1484 127.514 79.626L127.715 73.8055L124.89 73.0997L124.92 72.2042L134.803 72.545L134.772 73.4405L131.936 73.9511L131.656 82.0743C131.019 82.6073 130.186 83.0802 129.158 83.493C128.141 83.8955 127.036 84.2043 125.844 84.4193C124.663 84.6241 123.497 84.7066 122.345 84.6669ZM136.567 84.8211L136.598 83.9257L139.339 83.3798L140.074 62.0645L137.376 61.3631L137.407 60.4676L155.764 61.1007L156.1 68.0764L155.093 68.0417C154.856 67.1583 154.563 66.2357 154.211 65.2736C153.871 64.3014 153.45 63.3689 152.947 62.4764L144.28 62.1775L143.542 83.5728L152.033 83.8656C152.718 82.8966 153.28 81.9288 153.718 80.962C154.168 79.9956 154.591 79.0229 154.988 78.044L156.283 78.0887L154.78 85.4492L136.567 84.8211ZM150.002 76.8474C149.906 76.2251 149.768 75.6013 149.586 74.976C149.405 74.3401 149.166 73.7128 148.867 73.0941L143.446 72.9071L143.496 71.452L148.917 71.639C149.269 71.032 149.551 70.4228 149.764 69.8111C149.978 69.1887 150.159 68.5813 150.308 67.9887L151.299 68.0229L150.993 76.8816L150.002 76.8474ZM158.991 85.5945L159.022 84.699L161.764 84.1211L162.497 62.8698L159.8 62.1364L159.831 61.2409L170.177 61.5977C171.829 61.6547 173.281 61.9716 174.531 62.5483C175.792 63.1148 176.762 63.9274 177.441 64.9861C178.13 66.0345 178.449 67.3102 178.397 68.8133C178.344 70.3697 177.862 71.6446 176.953 72.6378C176.054 73.6208 174.814 74.3038 173.232 74.6868L179.368 84.7603L182.656 85.514L182.625 86.4095L175.014 86.147L168.593 75.0391L166.29 74.9597L165.969 84.2662L169.56 85.0624L169.529 85.9579L158.991 85.5945ZM166.34 73.5206L167.731 73.5685C168.978 73.6115 169.975 73.4912 170.721 73.2074C171.468 72.9236 172.079 72.5284 172.555 72.0219C173.042 71.5157 173.393 70.9461 173.607 70.3131C173.832 69.6698 173.956 69.0124 173.979 68.3408C174.021 67.1148 173.8 66.0933 173.316 65.2761C172.832 64.4589 172.154 63.8592 171.281 63.4769C170.924 63.3151 170.527 63.2001 170.092 63.1317C169.668 63.053 169.131 63.0025 168.48 62.9801L166.706 62.9189L166.34 73.5206ZM186.519 86.5438L186.549 85.6483C187.622 85.5038 188.429 85.3182 188.97 85.0914C189.522 84.865 189.945 84.5326 190.237 84.0945C190.54 83.6567 190.85 83.0483 191.165 82.2693L197.806 66.1046L196.803 63.6206L200.653 62.0083L208.54 84.4535C208.715 84.9505 208.91 85.3308 209.125 85.5943C209.34 85.8579 209.648 86.0553 210.049 86.1865C210.461 86.3181 211.038 86.4288 211.782 86.5185L211.752 87.4139L200.43 87.0235L200.461 86.1281C201.454 86.1089 202.209 86.0602 202.724 85.9819C203.239 85.893 203.545 85.6901 203.641 85.3732C203.738 85.0457 203.666 84.5095 203.424 83.7648L198.529 68.8192L198.433 68.8159L192.834 82.5991C192.566 83.2729 192.472 83.8247 192.553 84.2544C192.635 84.6734 192.938 85.0148 193.462 85.2783C193.987 85.5312 194.774 85.7612 195.824 85.9681L195.793 86.8636L186.519 86.5438ZM193.723 78.6434L193.775 77.1403L203.017 77.459L202.966 78.9621L193.723 78.6434ZM228.14 87.9791L228.171 87.0837L230.976 86.524L231.711 65.2247L228.949 64.5211L228.98 63.6256L238.734 63.962L238.702 64.8894L235.932 65.3702L235.198 86.6696L237.925 87.436L237.895 88.3155L228.14 87.9791ZM212.646 87.4448L212.676 86.5493L215.497 85.9902L216.232 64.6909L213.455 63.9867L213.485 63.0912L223.256 63.4282L223.225 64.3236L220.453 64.8364L219.719 86.1358L222.447 86.8862L222.416 87.7817L212.646 87.4448ZM218.035 75.5275L218.087 74.0243L233.502 74.5559L233.45 76.059L218.035 75.5275ZM240.724 88.4131L240.755 87.5176L243.495 86.9717L244.23 65.6564L241.533 64.955L241.564 64.0596L259.921 64.6926L260.257 71.6683L259.249 71.6336C259.013 70.7503 258.719 69.8276 258.368 68.8656C258.028 67.8933 257.607 66.9609 257.104 66.0683L248.437 65.7695L247.699 87.1647L256.19 87.4576C256.875 86.4886 257.436 85.5207 257.875 84.5539C258.325 83.5875 258.748 82.6148 259.145 81.6359L260.44 81.6806L258.937 89.0412L240.724 88.4131ZM254.159 80.4394C254.063 79.817 253.924 79.1932 253.743 78.5679C253.562 77.932 253.322 77.3047 253.024 76.686L247.603 76.4991L247.653 75.0439L253.074 75.2309C253.426 74.624 253.708 74.0147 253.921 73.403C254.135 72.7807 254.316 72.1732 254.464 71.5806L255.456 71.6148L255.15 80.4736L254.159 80.4394ZM261.006 89.1125L261.036 88.217C262.109 88.0726 262.916 87.8869 263.457 87.6601C264.009 87.4337 264.432 87.1014 264.724 86.6632C265.027 86.2254 265.337 85.617 265.652 84.8381L272.293 68.6734L271.29 66.1893L275.14 64.5771L283.027 87.0222C283.202 87.5192 283.397 87.8995 283.612 88.1631C283.827 88.4266 284.135 88.624 284.536 88.7553C284.948 88.8869 285.525 88.9975 286.269 89.0872L286.239 89.9827L274.917 89.5923L274.948 88.6968C275.941 88.6777 276.696 88.629 277.211 88.5507C277.726 88.4617 278.032 88.2588 278.128 87.9419C278.225 87.6144 278.153 87.0783 277.911 86.3335L273.016 71.3879L272.92 71.3846L267.321 85.1678C267.053 85.8416 266.959 86.3934 267.04 86.8231C267.122 87.2422 267.425 87.5835 267.949 87.8471C268.474 88.1 269.261 88.3299 270.311 88.5369L270.28 89.4323L261.006 89.1125ZM268.21 81.2121L268.262 79.709L277.504 80.0277L277.453 81.5309L268.21 81.2121ZM287.196 90.0157L287.228 89.0883L289.968 88.5744L290.703 67.259L288.005 66.5577L288.036 65.6622L296.239 65.9451C297.988 66.0054 299.499 66.1322 300.773 66.3256C302.047 66.5189 303.158 66.8027 304.106 67.1769C305.064 67.5409 305.923 68.0187 306.682 68.6106C308.127 69.717 309.236 71.1428 310.008 72.8878C310.781 74.6221 311.131 76.55 311.058 78.6714C310.983 80.8354 310.472 82.8136 309.524 84.606C308.577 86.3878 307.328 87.7802 305.778 88.7834C304.774 89.4212 303.691 89.8641 302.53 90.1123C301.369 90.3604 299.957 90.4558 298.294 90.3984L287.196 90.0157ZM297.431 88.9598C298.849 89.0087 300.038 88.863 301 88.5226C301.973 88.1719 302.825 87.5929 303.558 86.7857C304.369 85.8531 304.997 84.6687 305.441 83.2325C305.897 81.786 306.156 80.1353 306.22 78.2804C306.284 76.4255 306.137 74.8141 305.779 73.4463C305.421 72.0678 304.857 70.9117 304.089 69.978C303.392 69.1428 302.528 68.526 301.495 68.1275C300.463 67.7291 299.153 67.5024 297.564 67.4476L294.91 67.3561L294.235 86.9445C294.211 87.6374 294.434 88.136 294.903 88.4404C295.384 88.7451 296.226 88.9183 297.431 88.9598Z" fill="white"/>
<path d="M337.66 82.5539L333.323 82.4043L333.405 71.0971L338.402 71.2694L337.66 82.5543L337.66 82.5539Z" fill="white"/>
<path d="M333.114 89.0939L337.453 89.2435L337.602 84.9051L333.264 84.7555L333.114 89.0939Z" fill="white"/>
<path d="M371.152 93.2472C368.807 93.1663 366.762 92.5728 365.018 91.4667C363.273 90.3606 361.932 88.8628 360.994 86.9734C360.067 85.0843 359.645 82.9191 359.729 80.4779C359.793 78.623 360.14 76.9326 360.769 75.4067C361.408 73.8812 362.281 72.5718 363.386 71.4786C364.491 70.3854 365.784 69.5548 367.266 68.9868C368.748 68.4189 370.363 68.1651 372.111 68.2254C373.39 68.2695 374.637 68.4832 375.851 68.8667C377.076 69.2398 378.168 69.7577 379.127 70.4205L379.255 70.4249L380.798 68.8612L381.534 68.8865L381.276 76.3541L380.077 76.3127C379.905 75.7305 379.715 75.2009 379.507 74.7242C379.3 74.2367 379.081 73.7916 378.849 73.3887C378.143 72.1903 377.293 71.3125 376.298 70.7552C375.303 70.1979 374.119 69.8956 372.743 69.8481C370.217 69.761 368.25 70.6164 366.843 72.4143C365.437 74.2122 364.673 76.8648 364.552 80.3721C364.43 83.89 365.008 86.6262 366.286 88.5807C367.574 90.5249 369.466 91.5401 371.96 91.6261C373.24 91.6702 374.4 91.4487 375.441 90.9617C376.494 90.4643 377.384 89.7265 378.111 88.7484C378.514 88.2179 378.865 87.6164 379.166 86.9436C379.478 86.2607 379.717 85.5111 379.884 84.6951L380.987 84.7331L380.694 93.24L379.75 93.2075L378.431 91.0808C377.24 91.8829 376.062 92.4559 374.898 92.8C373.733 93.1441 372.484 93.2931 371.152 93.2472ZM381.996 93.285L382.027 92.3895C383.099 92.245 383.906 92.0594 384.448 91.8326C385 91.6062 385.422 91.2738 385.715 90.8357C386.018 90.3979 386.327 89.7895 386.642 89.0106L393.283 72.8458L392.28 70.3618L396.13 68.7495L404.017 91.1947C404.192 91.6917 404.387 92.072 404.602 92.3355C404.818 92.5991 405.126 92.7965 405.527 92.9277C405.938 93.0593 406.516 93.17 407.26 93.2597L407.229 94.1551L395.908 93.7647L395.939 92.8693C396.932 92.8501 397.686 92.8014 398.201 92.7231C398.717 92.6342 399.023 92.4313 399.119 92.1144C399.216 91.7869 399.143 91.2507 398.902 90.506L394.006 75.5604L393.91 75.5571L388.312 89.3403C388.043 90.0141 387.95 90.5659 388.031 90.9956C388.112 91.4146 388.416 91.756 388.94 92.0195C389.465 92.2724 390.252 92.5024 391.302 92.7093L391.271 93.6048L381.996 93.285ZM389.201 85.3846L389.253 83.8815L398.495 84.2002L398.443 85.7033L389.201 85.3846ZM418.296 94.873C416.548 94.8127 415.006 94.4874 413.671 93.897C412.337 93.296 411.308 92.4867 410.585 91.4692C410.157 90.8781 409.85 90.1898 409.664 89.4042C409.488 88.6084 409.424 87.5495 409.469 86.2276L409.981 71.3725L407.22 70.6689L407.251 69.7734L417.101 70.1131L417.07 71.0086L414.235 71.5191L413.714 86.6302C413.642 88.7089 414.099 90.315 415.085 91.4483C416.07 92.5709 417.448 93.1628 419.218 93.2238C421.414 93.2995 423.014 92.6983 424.019 91.4202C424.498 90.8283 424.857 90.0082 425.096 88.9598C425.336 87.9008 425.485 86.4971 425.546 84.7488L425.988 71.9245L423.195 71.2198L423.225 70.3243L430.517 70.5758L430.486 71.4712L427.635 71.9813L427.14 86.3407C427.096 87.62 426.945 88.7248 426.689 89.6552C426.444 90.5859 426.091 91.3849 425.63 92.0521C424.935 93.0207 423.96 93.7502 422.705 94.2406C421.461 94.7206 419.991 94.9315 418.296 94.873ZM436.99 95.1815L437.021 94.286L440.674 93.7396L441.409 72.4083L435.557 72.2064C434.844 73.0677 434.231 73.9858 433.717 74.9606C433.214 75.9359 432.792 76.8606 432.452 77.7347L431.477 77.7011L432.889 70.6575L454.124 71.3899L455.047 78.5139L454.088 78.4808C453.809 77.5854 453.452 76.6338 453.017 75.6262C452.593 74.619 452.055 73.6612 451.403 72.7529L445.615 72.5533L444.879 93.8846L448.422 94.6792L448.391 95.5746L436.99 95.1815ZM456.126 95.8414L456.157 94.9459L458.978 94.3868L459.712 73.0875L456.935 72.3833L456.966 71.4879L466.736 71.8248L466.705 72.7203L463.934 73.2331L463.199 94.5324L465.927 95.2829L465.896 96.1783L456.126 95.8414ZM480.32 97.0119C478.54 96.9506 476.936 96.575 475.508 95.8854C474.081 95.1958 472.864 94.2627 471.859 93.086C470.853 91.9093 470.094 90.5543 469.581 89.0211C469.08 87.4775 468.859 85.8316 468.919 84.0833C468.98 82.3244 469.313 80.6976 469.92 79.2029C470.537 77.7086 471.388 76.4092 472.472 75.3045C473.556 74.1999 474.834 73.3581 476.305 72.7792C477.777 72.1895 479.403 71.9254 481.183 71.9868C482.974 72.0486 484.584 72.4243 486.011 73.1139C487.45 73.7932 488.672 74.7212 489.678 75.8979C490.683 77.0746 491.437 78.4294 491.939 79.9623C492.452 81.4955 492.678 83.1416 492.617 84.9006C492.557 86.6489 492.218 88.2755 491.6 89.7804C490.994 91.2751 490.148 92.5747 489.064 93.6793C487.98 94.784 486.697 95.6309 485.214 96.2202C483.743 96.8098 482.111 97.0737 480.32 97.0119ZM480.376 95.3969C481.357 95.4307 482.227 95.274 482.986 94.9266C483.756 94.5689 484.425 94.0583 484.992 93.3948C485.57 92.7317 486.05 91.9478 486.434 91.0431C486.817 90.1384 487.113 89.1454 487.321 88.0639C487.529 86.9824 487.653 85.8554 487.694 84.6827C487.734 83.5101 487.687 82.3878 487.554 81.3159C487.42 80.2333 487.193 79.2329 486.873 78.3147C486.563 77.3968 486.148 76.5927 485.627 75.9023C485.106 75.212 484.474 74.6672 483.73 74.268C482.986 73.8687 482.129 73.6524 481.159 73.619C480.178 73.5851 479.303 73.7417 478.533 74.0887C477.774 74.4361 477.106 74.9414 476.528 75.6045C475.961 76.2574 475.486 77.0361 475.102 77.9408C474.719 78.8348 474.424 79.8172 474.216 80.888C474.02 81.9485 473.901 83.0651 473.861 84.2377C473.82 85.4104 473.861 86.5431 473.984 87.636C474.117 88.7186 474.344 89.7243 474.664 90.6532C474.984 91.5821 475.404 92.3971 475.925 93.0981C476.445 93.7885 477.072 94.3384 477.805 94.7479C478.549 95.1471 479.406 95.3635 480.376 95.3969ZM514.856 98.3791L499.985 76.9738L499.336 95.7946L502.128 96.5313L502.097 97.4267L494.79 97.1747L494.821 96.2793L497.689 95.7378L498.424 74.4225L495.615 73.7172L495.646 72.8218L502.953 73.0738L514.978 90.2024L515.502 75.0114L512.709 74.3067L512.739 73.4113L520.047 73.6633L520.016 74.5587L517.149 75.0682L516.343 98.4303L514.856 98.3791Z" fill="white"/>
<path d="M545.537 89.7227L541.2 89.5731L541.281 78.2659L546.278 78.4382L545.537 89.7231L545.537 89.7227Z" fill="white"/>
<path d="M540.991 96.2627L545.329 96.4123L545.479 92.0739L541.14 91.9243L540.991 96.2627Z" fill="white"/>
<path d="M566.999 99.6649L567.031 98.7375L569.77 98.2236L570.506 76.9083L567.808 76.2069L567.839 75.3114L576.042 75.5943C577.79 75.6546 579.302 75.7814 580.576 75.9748C581.85 76.1681 582.961 76.4519 583.908 76.8262C584.867 77.1901 585.726 77.668 586.484 78.2598C587.93 79.3663 589.039 80.792 589.811 82.537C590.584 84.2713 590.933 86.1992 590.86 88.3206C590.786 90.4846 590.275 92.4629 589.327 94.2553C588.38 96.037 587.131 97.4295 585.581 98.4326C584.577 99.0704 583.494 99.5134 582.333 99.7615C581.172 100.01 579.76 100.105 578.097 100.048L566.999 99.6649ZM577.234 98.609C578.651 98.6579 579.841 98.5122 580.803 98.1718C581.775 97.8211 582.628 97.2422 583.36 96.4349C584.171 95.5023 584.799 94.3179 585.244 92.8817C585.699 91.4352 585.959 89.7845 586.023 87.9296C586.087 86.0747 585.94 84.4634 585.581 83.0955C585.223 81.717 584.66 80.5609 583.892 79.6272C583.195 78.7921 582.33 78.1752 581.298 77.7768C580.266 77.3783 578.956 77.1516 577.367 77.0969L574.713 77.0053L574.037 96.5937C574.013 97.2866 574.236 97.7853 574.706 98.0896C575.186 98.3944 576.029 98.5675 577.234 98.609ZM590.31 100.469L590.341 99.5734C591.413 99.4289 592.22 99.2433 592.762 99.0165C593.314 98.79 593.736 98.4577 594.029 98.0195C594.332 97.5817 594.641 96.9734 594.956 96.1944L601.597 80.0297L600.594 77.5457L604.444 75.9334L612.331 98.3786C612.506 98.8756 612.701 99.2558 612.916 99.5194C613.131 99.783 613.439 99.9804 613.84 100.112C614.252 100.243 614.83 100.354 615.574 100.444L615.543 101.339L604.222 100.949L604.253 100.053C605.246 100.034 606 99.9853 606.515 99.907C607.03 99.8181 607.336 99.6151 607.433 99.2983C607.529 98.9707 607.457 98.4346 607.216 97.6899L602.32 82.7442L602.224 82.7409L596.626 96.5242C596.357 97.198 596.263 97.7497 596.345 98.1795C596.426 98.5985 596.729 98.9398 597.254 99.2034C597.779 99.4563 598.566 99.6862 599.615 99.8932L599.585 100.789L590.31 100.469ZM597.515 92.5685L597.566 91.0653L606.809 91.3841L606.757 92.8872L597.515 92.5685ZM636.471 102.573L621.6 81.1678L620.951 99.9886L623.744 100.725L623.713 101.621L616.405 101.369L616.436 100.473L619.304 99.9318L620.039 78.6165L617.23 77.9112L617.261 77.0158L624.569 77.2678L636.593 94.3964L637.117 79.2054L634.324 78.5007L634.355 77.6053L641.662 77.8573L641.631 78.7527L638.764 79.2622L637.959 102.624L636.471 102.573ZM655.029 103.037C652.694 102.956 650.655 102.374 648.91 101.289C647.176 100.194 645.839 98.7123 644.9 96.8442C643.962 94.9654 643.534 92.8267 643.617 90.4281C643.681 88.5732 644.043 86.878 644.705 85.3426C645.366 83.7965 646.261 82.4665 647.388 81.3527C648.526 80.2392 649.851 79.3938 651.366 78.8163C652.88 78.2281 654.522 77.9646 656.292 78.0256C657.592 78.0704 658.807 78.2831 659.936 78.6636C661.065 79.044 661.981 79.5559 662.685 80.1992L662.813 80.2036L664.435 78.6426L665.267 78.6713L665.009 86.1389L663.986 86.1036C663.346 84.5552 662.684 83.321 662 82.4009C661.317 81.4702 660.551 80.7927 659.701 80.3685C658.862 79.9446 657.867 79.7129 656.715 79.6732C654.135 79.5842 652.158 80.4499 650.782 82.2702C649.417 84.0909 648.671 86.8508 648.543 90.55C648.419 94.1638 648.918 96.86 650.042 98.6384C651.176 100.407 652.964 101.333 655.405 101.417C656.386 101.451 657.271 101.321 658.06 101.028C658.85 100.725 659.441 100.275 659.836 99.6806C659.969 99.5144 660.056 99.3253 660.095 99.1132C660.146 98.8908 660.18 98.5184 660.198 97.9961L660.399 92.1755L657.573 91.4697L657.604 90.5743L667.486 90.9151L667.455 91.8105L664.62 92.3211L664.34 100.444C663.702 100.977 662.87 101.45 661.841 101.863C660.824 102.266 659.72 102.574 658.528 102.789C657.346 102.994 656.18 103.077 655.029 103.037ZM669.251 103.191L669.282 102.296L672.022 101.75L672.757 80.4345L670.06 79.7331L670.091 78.8376L688.448 79.4707L688.784 86.4464L687.776 86.4117C687.54 85.5283 687.246 84.6057 686.895 83.6437C686.555 82.6714 686.134 81.739 685.631 80.8464L676.964 80.5476L676.226 101.943L684.717 102.236C685.401 101.267 685.963 100.299 686.402 99.332C686.852 98.3656 687.275 97.3929 687.671 96.414L688.967 96.4587L687.464 103.819L669.251 103.191ZM682.686 95.2175C682.59 94.5951 682.451 93.9713 682.27 93.346C682.089 92.7101 681.849 92.0828 681.55 91.4641L676.13 91.2772L676.18 89.822L681.601 90.009C681.952 89.4021 682.235 88.7928 682.448 88.1811C682.662 87.5588 682.843 86.9513 682.991 86.3587L683.983 86.3929L683.677 95.2517L682.686 95.2175ZM691.675 103.964L691.706 103.069L694.447 102.491L695.18 81.2398L692.484 80.5064L692.515 79.611L702.861 79.9678C704.513 80.0247 705.964 80.3416 707.215 80.9184C708.476 81.4848 709.446 82.2974 710.124 83.3561C710.814 84.4045 711.133 85.6802 711.081 87.1834C711.027 88.7398 710.546 90.0146 709.636 91.0078C708.738 91.9908 707.498 92.6738 705.915 93.0568L712.052 103.13L715.34 103.884L715.309 104.78L707.698 104.517L701.277 93.4091L698.974 93.3297L698.653 102.636L702.244 103.432L702.213 104.328L691.675 103.964ZM699.024 91.8906L700.415 91.9386C701.662 91.9816 702.659 91.8612 703.405 91.5774C704.151 91.2936 704.762 90.8985 705.239 90.3919C705.726 89.8857 706.076 89.3161 706.29 88.6831C706.515 88.0398 706.639 87.3824 706.663 86.7108C706.705 85.4849 706.484 84.4633 706 83.6461C705.516 82.829 704.837 82.2292 703.965 81.8469C703.607 81.6852 703.211 81.5701 702.776 81.5017C702.352 81.4231 701.814 81.3725 701.164 81.3501L699.389 81.2889L699.024 91.8906ZM719.202 104.914L719.233 104.018C720.305 103.874 721.112 103.688 721.654 103.461C722.206 103.235 722.628 102.903 722.921 102.464C723.224 102.027 723.533 101.418 723.848 100.639L730.489 84.4747L729.486 81.9906L733.336 80.3783L741.223 102.824C741.398 103.321 741.593 103.701 741.808 103.964C742.023 104.228 742.331 104.425 742.732 104.557C743.144 104.688 743.722 104.799 744.466 104.888L744.435 105.784L733.114 105.394L733.145 104.498C734.138 104.479 734.892 104.43 735.407 104.352C735.923 104.263 736.228 104.06 736.325 103.743C736.421 103.416 736.349 102.88 736.108 102.135L731.212 87.1892L731.116 87.1859L725.518 100.969C725.249 101.643 725.155 102.195 725.237 102.624C725.318 103.043 725.621 103.385 726.146 103.648C726.671 103.901 727.458 104.131 728.508 104.338L728.477 105.234L719.202 104.914ZM726.407 97.0134L726.459 95.5103L735.701 95.829L735.649 97.3321L726.407 97.0134ZM760.824 106.349L760.855 105.454L763.66 104.894L764.394 83.5947L761.633 82.8911L761.664 81.9956L771.418 82.332L771.386 83.2595L768.616 83.7403L767.881 105.04L770.608 105.806L770.578 106.686L760.824 106.349ZM745.329 105.815L745.36 104.919L748.181 104.36L748.915 83.0609L746.138 82.3567L746.169 81.4613L755.939 81.7982L755.908 82.6937L753.137 83.2065L752.402 104.506L755.13 105.256L755.099 106.152L745.329 105.815ZM750.719 93.8975L750.771 92.3944L766.186 92.926L766.134 94.4291L750.719 93.8975ZM773.408 106.783L773.439 105.888L776.179 105.342L776.914 84.0264L774.217 83.3251L774.248 82.4296L792.605 83.0626L792.94 90.0384L791.933 90.0036C791.697 89.1203 791.403 88.1976 791.052 87.2356C790.712 86.2633 790.29 85.3309 789.788 84.4384L781.121 84.1395L780.383 105.535L788.874 105.828C789.558 104.859 790.12 103.891 790.559 102.924C791.008 101.958 791.432 100.985 791.828 100.006L793.123 100.051L791.621 107.411L773.408 106.783ZM786.842 98.8094C786.747 98.1871 786.608 97.5632 786.427 96.938C786.246 96.302 786.006 95.6747 785.707 95.056L780.286 94.8691L780.337 93.414L785.757 93.6009C786.109 92.994 786.392 92.3847 786.605 91.773C786.818 91.1507 786.999 90.5432 787.148 89.9507L788.139 89.9849L787.834 98.8436L786.842 98.8094ZM793.689 107.483L793.72 106.587C794.792 106.443 795.599 106.257 796.141 106.03C796.693 105.804 797.115 105.471 797.408 105.033C797.711 104.595 798.02 103.987 798.335 103.208L804.976 87.0434L803.973 84.5594L807.823 82.9471L815.71 105.392C815.885 105.889 816.08 106.27 816.295 106.533C816.51 106.797 816.818 106.994 817.219 107.125C817.631 107.257 818.209 107.368 818.953 107.457L818.922 108.353L807.601 107.962L807.632 107.067C808.625 107.048 809.379 106.999 809.894 106.921C810.41 106.832 810.715 106.629 810.812 106.312C810.908 105.984 810.836 105.448 810.595 104.704L805.699 89.7579L805.603 89.7546L800.005 103.538C799.736 104.212 799.642 104.763 799.724 105.193C799.805 105.612 800.108 105.954 800.633 106.217C801.158 106.47 801.945 106.7 802.995 106.907L802.964 107.802L793.689 107.483ZM800.894 99.5821L800.946 98.079L810.188 98.3978L810.136 99.9009L800.894 99.5821ZM819.88 108.386L819.912 107.458L822.651 106.944L823.386 85.6291L820.689 84.9277L820.72 84.0322L828.923 84.3151C830.671 84.3754 832.183 84.5022 833.457 84.6956C834.731 84.8889 835.842 85.1727 836.789 85.547C837.748 85.9109 838.607 86.3888 839.365 86.9806C840.811 88.0871 841.92 89.5128 842.692 91.2578C843.465 92.9921 843.814 94.92 843.741 97.0414C843.667 99.2054 843.155 101.184 842.208 102.976C841.26 104.758 840.012 106.15 838.462 107.153C837.458 107.791 836.375 108.234 835.214 108.482C834.053 108.73 832.64 108.826 830.977 108.768L819.88 108.386ZM830.115 107.33C831.532 107.379 832.722 107.233 833.684 106.893C834.656 106.542 835.509 105.963 836.241 105.156C837.052 104.223 837.68 103.039 838.125 101.603C838.58 100.156 838.84 98.5053 838.904 96.6504C838.968 94.7955 838.821 93.1842 838.462 91.8163C838.104 90.4378 837.541 89.2818 836.773 88.348C836.076 87.5129 835.211 86.896 834.179 86.4976C833.147 86.0991 831.836 85.8724 830.248 85.8177L827.594 85.7261L826.918 105.314C826.894 106.007 827.117 106.506 827.587 106.81C828.067 107.115 828.91 107.288 830.115 107.33Z" fill="white"/>
<path d="M870.344 100.924L866.007 100.774L866.088 89.4671L871.085 89.6394L870.344 100.924L870.344 100.924Z" fill="white"/>
<path d="M865.798 107.464L870.136 107.614L870.286 103.275L865.947 103.126L865.798 107.464Z" fill="white"/>
<path d="M903.836 111.617C901.49 111.536 899.445 110.943 897.701 109.837C895.957 108.731 894.616 107.233 893.678 105.343C892.75 103.454 892.329 101.289 892.413 98.8479C892.477 96.993 892.823 95.3026 893.452 93.7767C894.092 92.2512 894.964 90.9418 896.069 89.8486C897.174 88.7554 898.468 87.9248 899.949 87.3569C901.431 86.7889 903.046 86.5351 904.794 86.5954C906.074 86.6395 907.32 86.8533 908.535 87.2367C909.76 87.6098 910.852 88.1277 911.811 88.7905L911.939 88.7949L913.482 87.2312L914.217 87.2565L913.96 94.7241L912.76 94.6828C912.588 94.1005 912.399 93.571 912.191 93.0942C911.984 92.6067 911.764 92.1616 911.533 91.7587C910.827 90.5603 909.976 89.6825 908.982 89.1252C907.987 88.5679 906.802 88.2656 905.427 88.2182C902.9 88.131 900.934 88.9864 899.527 90.7843C898.12 92.5823 897.356 95.2348 897.235 98.7421C897.114 102.26 897.692 104.996 898.969 106.951C900.258 108.895 902.149 109.91 904.644 109.996C905.923 110.04 907.083 109.819 908.125 109.332C909.177 108.834 910.067 108.097 910.795 107.118C911.197 106.588 911.549 105.986 911.85 105.314C912.161 104.631 912.401 103.881 912.567 103.065L913.671 103.103L913.377 111.61L912.434 111.578L911.115 109.451C909.924 110.253 908.746 110.826 907.581 111.17C906.417 111.514 905.168 111.663 903.836 111.617ZM914.68 111.655L914.711 110.76C915.783 110.615 916.59 110.429 917.131 110.203C917.684 109.976 918.106 109.644 918.399 109.206C918.702 108.768 919.011 108.16 919.326 107.381L925.967 91.2159L924.964 88.7318L928.814 87.1195L936.701 109.565C936.876 110.062 937.071 110.442 937.286 110.706C937.501 110.969 937.809 111.167 938.21 111.298C938.622 111.429 939.2 111.54 939.944 111.63L939.913 112.525L928.592 112.135L928.623 111.239C929.616 111.22 930.37 111.171 930.885 111.093C931.4 111.004 931.706 110.801 931.802 110.484C931.899 110.157 931.827 109.621 931.586 108.876L926.69 93.9304L926.594 93.9271L920.996 107.71C920.727 108.384 920.633 108.936 920.714 109.366C920.796 109.785 921.099 110.126 921.624 110.39C922.149 110.642 922.936 110.872 923.985 111.079L923.954 111.975L914.68 111.655ZM921.884 103.755L921.936 102.251L931.179 102.57L931.127 104.073L921.884 103.755ZM950.98 113.243C949.232 113.183 947.69 112.857 946.355 112.267C945.02 111.666 943.991 110.857 943.269 109.839C942.841 109.248 942.534 108.56 942.347 107.774C942.172 106.978 942.107 105.92 942.153 104.598L942.665 89.7425L939.904 89.0389L939.935 88.1434L949.785 88.4831L949.754 89.3786L946.918 89.8892L946.397 105C946.326 107.079 946.783 108.685 947.768 109.818C948.754 110.941 950.132 111.533 951.901 111.594C954.097 111.67 955.698 111.068 956.702 109.79C957.182 109.198 957.541 108.378 957.78 107.33C958.019 106.271 958.169 104.867 958.229 103.119L958.672 90.2945L955.878 89.5898L955.909 88.6943L963.201 88.9458L963.17 89.8412L960.319 90.3513L959.823 104.711C959.779 105.99 959.629 107.095 959.373 108.025C959.127 108.956 958.774 109.755 958.314 110.422C957.618 111.391 956.643 112.12 955.388 112.611C954.144 113.091 952.675 113.301 950.98 113.243ZM969.673 113.551L969.704 112.656L973.357 112.11L974.093 90.7783L968.24 90.5764C967.528 91.4377 966.914 92.3558 966.4 93.3307C965.897 94.3059 965.476 95.2306 965.136 96.1047L964.161 96.0711L965.572 89.0276L986.808 89.7599L987.731 96.8839L986.771 96.8508C986.493 95.9554 986.136 95.0038 985.701 93.9963C985.277 92.989 984.739 92.0313 984.087 91.1229L978.298 90.9233L977.563 112.255L981.106 113.049L981.075 113.945L969.673 113.551ZM988.81 114.211L988.84 113.316L991.661 112.757L992.396 91.4575L989.619 90.7534L989.649 89.8579L999.42 90.1948L999.389 91.0903L996.617 91.6031L995.883 112.902L998.611 113.653L998.58 114.548L988.81 114.211ZM1013 115.382C1011.22 115.321 1009.62 114.945 1008.19 114.255C1006.76 113.566 1005.55 112.633 1004.54 111.456C1003.54 110.279 1002.78 108.924 1002.26 107.391C1001.76 105.848 1001.54 104.202 1001.6 102.453C1001.66 100.694 1002 99.0676 1002.6 97.5729C1003.22 96.0787 1004.07 94.7792 1005.16 93.6746C1006.24 92.5699 1007.52 91.7282 1008.99 91.1492C1010.46 90.5596 1012.09 90.2955 1013.87 90.3568C1015.66 90.4186 1017.27 90.7943 1018.69 91.4839C1020.13 92.1632 1021.36 93.0912 1022.36 94.2679C1023.37 95.4446 1024.12 96.7994 1024.62 98.3323C1025.14 99.8655 1025.36 101.512 1025.3 103.271C1025.24 105.019 1024.9 106.645 1024.28 108.15C1023.68 109.645 1022.83 110.945 1021.75 112.049C1020.66 113.154 1019.38 114.001 1017.9 114.59C1016.43 115.18 1014.79 115.444 1013 115.382ZM1013.06 113.767C1014.04 113.801 1014.91 113.644 1015.67 113.297C1016.44 112.939 1017.11 112.428 1017.68 111.765C1018.25 111.102 1018.73 110.318 1019.12 109.413C1019.5 108.508 1019.8 107.515 1020 106.434C1020.21 105.352 1020.34 104.225 1020.38 103.053C1020.42 101.88 1020.37 100.758 1020.24 99.6859C1020.1 98.6034 1019.88 97.6029 1019.56 96.6847C1019.25 95.7668 1018.83 94.9627 1018.31 94.2723C1017.79 93.582 1017.16 93.0372 1016.41 92.638C1015.67 92.2388 1014.81 92.0224 1013.84 91.989C1012.86 91.9552 1011.99 92.1118 1011.22 92.4588C1010.46 92.8061 1009.79 93.3114 1009.21 93.9745C1008.64 94.6274 1008.17 95.4062 1007.79 96.3108C1007.4 97.2048 1007.11 98.1872 1006.9 99.258C1006.7 100.319 1006.58 101.435 1006.54 102.608C1006.5 103.78 1006.54 104.913 1006.67 106.006C1006.8 107.089 1007.03 108.094 1007.35 109.023C1007.67 109.952 1008.09 110.767 1008.61 111.468C1009.13 112.158 1009.76 112.708 1010.49 113.118C1011.23 113.517 1012.09 113.733 1013.06 113.767ZM1047.54 116.749L1032.67 95.3438L1032.02 114.165L1034.81 114.901L1034.78 115.797L1027.47 115.545L1027.5 114.649L1030.37 114.108L1031.11 92.7925L1028.3 92.0873L1028.33 91.1918L1035.64 91.4438L1047.66 108.572L1048.19 93.3814L1045.39 92.6768L1045.42 91.7813L1052.73 92.0333L1052.7 92.9288L1049.83 93.4382L1049.03 116.8L1047.54 116.749Z" fill="white"/>
<path d="M1078.22 108.093L1073.88 107.943L1073.96 96.6359L1078.96 96.8082L1078.22 108.093L1078.22 108.093Z" fill="white"/>
<path d="M1073.67 114.633L1078.01 114.782L1078.16 110.444L1073.82 110.294L1073.67 114.633Z" fill="white"/>
<path d="M1099.68 118.035L1099.71 117.108L1102.45 116.594L1103.19 95.2783L1100.49 94.5769L1100.52 93.6814L1108.73 93.9643C1110.47 94.0246 1111.98 94.1515 1113.26 94.3448C1114.53 94.5382 1115.64 94.822 1116.59 95.1962C1117.55 95.5601 1118.41 96.038 1119.17 96.6298C1120.61 97.7363 1121.72 99.162 1122.49 100.907C1123.27 102.641 1123.62 104.569 1123.54 106.691C1123.47 108.855 1122.96 110.833 1122.01 112.625C1121.06 114.407 1119.81 115.799 1118.26 116.803C1117.26 117.44 1116.18 117.883 1115.02 118.132C1113.85 118.38 1112.44 118.475 1110.78 118.418L1099.68 118.035ZM1109.92 116.979C1111.33 117.028 1112.52 116.882 1113.49 116.542C1114.46 116.191 1115.31 115.612 1116.04 114.805C1116.85 113.872 1117.48 112.688 1117.93 111.252C1118.38 109.805 1118.64 108.155 1118.71 106.3C1118.77 104.445 1118.62 102.833 1118.26 101.466C1117.91 100.087 1117.34 98.931 1116.57 97.9973C1115.88 97.1621 1115.01 96.5453 1113.98 96.1468C1112.95 95.7483 1111.64 95.5217 1110.05 95.4669L1107.4 95.3754L1106.72 114.964C1106.7 115.657 1106.92 116.155 1107.39 116.46C1107.87 116.764 1108.71 116.938 1109.92 116.979ZM1122.99 118.839L1123.02 117.943C1124.1 117.799 1124.9 117.613 1125.44 117.386C1126 117.16 1126.42 116.828 1126.71 116.39C1127.02 115.952 1127.32 115.343 1127.64 114.564L1134.28 98.3997L1133.28 95.9157L1137.13 94.3034L1145.01 116.749C1145.19 117.246 1145.38 117.626 1145.6 117.889C1145.81 118.153 1146.12 118.35 1146.52 118.482C1146.94 118.613 1147.51 118.724 1148.26 118.814L1148.23 119.709L1136.9 119.319L1136.94 118.423C1137.93 118.404 1138.68 118.355 1139.2 118.277C1139.71 118.188 1140.02 117.985 1140.12 117.668C1140.21 117.341 1140.14 116.805 1139.9 116.06L1135 101.114L1134.91 101.111L1129.31 114.894C1129.04 115.568 1128.95 116.12 1129.03 116.549C1129.11 116.969 1129.41 117.31 1129.94 117.573C1130.46 117.826 1131.25 118.056 1132.3 118.263L1132.27 119.159L1122.99 118.839ZM1130.2 110.938L1130.25 109.435L1139.49 109.754L1139.44 111.257L1130.2 110.938ZM1169.15 120.943L1154.28 99.5378L1153.63 118.359L1156.43 119.095L1156.4 119.991L1149.09 119.739L1149.12 118.843L1151.99 118.302L1152.72 96.9865L1149.91 96.2813L1149.94 95.3858L1157.25 95.6378L1169.28 112.766L1169.8 97.5755L1167.01 96.8708L1167.04 95.9753L1174.35 96.2273L1174.31 97.1228L1171.45 97.6323L1170.64 120.994L1169.15 120.943ZM1187.71 121.407C1185.38 121.326 1183.34 120.744 1181.59 119.659C1179.86 118.564 1178.52 117.082 1177.58 115.214C1176.65 113.335 1176.22 111.197 1176.3 108.798C1176.36 106.943 1176.73 105.248 1177.39 103.713C1178.05 102.166 1178.94 100.837 1180.07 99.7227C1181.21 98.6093 1182.53 97.7638 1184.05 97.1863C1185.56 96.5981 1187.21 96.3346 1188.97 96.3956C1190.28 96.4405 1191.49 96.6531 1192.62 97.0336C1193.75 97.4141 1194.66 97.9259 1195.37 98.5692L1195.5 98.5736L1197.12 97.0126L1197.95 97.0413L1197.69 104.509L1196.67 104.474C1196.03 102.925 1195.37 101.691 1194.68 100.771C1194 99.8402 1193.23 99.1627 1192.38 98.7385C1191.54 98.3147 1190.55 98.0829 1189.4 98.0432C1186.82 97.9542 1184.84 98.8199 1183.47 100.64C1182.1 102.461 1181.35 105.221 1181.23 108.92C1181.1 112.534 1181.6 115.23 1182.72 117.008C1183.86 118.777 1185.65 119.703 1188.09 119.787C1189.07 119.821 1189.95 119.691 1190.74 119.398C1191.53 119.095 1192.12 118.645 1192.52 118.051C1192.65 117.884 1192.74 117.695 1192.78 117.483C1192.83 117.261 1192.86 116.888 1192.88 116.366L1193.08 110.546L1190.26 109.84L1190.29 108.944L1200.17 109.285L1200.14 110.181L1197.3 110.691L1197.02 118.814C1196.39 119.347 1195.55 119.82 1194.52 120.233C1193.51 120.636 1192.4 120.944 1191.21 121.159C1190.03 121.364 1188.86 121.447 1187.71 121.407ZM1201.93 121.561L1201.96 120.666L1204.71 120.12L1205.44 98.8045L1202.74 98.1031L1202.77 97.2077L1221.13 97.8407L1221.47 104.816L1220.46 104.782C1220.22 103.898 1219.93 102.976 1219.58 102.014C1219.24 101.041 1218.82 100.109 1218.31 99.2165L1209.65 98.9176L1208.91 120.313L1217.4 120.606C1218.08 119.637 1218.65 118.669 1219.09 117.702C1219.53 116.736 1219.96 115.763 1220.35 114.784L1221.65 114.829L1220.15 122.189L1201.93 121.561ZM1215.37 113.587C1215.27 112.965 1215.13 112.341 1214.95 111.716C1214.77 111.08 1214.53 110.453 1214.23 109.834L1208.81 109.647L1208.86 108.192L1214.28 108.379C1214.64 107.772 1214.92 107.163 1215.13 106.551C1215.34 105.929 1215.53 105.321 1215.67 104.729L1216.67 104.763L1216.36 113.622L1215.37 113.587ZM1224.36 122.335L1224.39 121.439L1227.13 120.861L1227.86 99.6098L1225.17 98.8765L1225.2 97.981L1235.54 98.3378C1237.2 98.3948 1238.65 98.7116 1239.9 99.2884C1241.16 99.8549 1242.13 100.667 1242.81 101.726C1243.5 102.775 1243.82 104.05 1243.76 105.553C1243.71 107.11 1243.23 108.385 1242.32 109.378C1241.42 110.361 1240.18 111.044 1238.6 111.427L1244.73 121.5L1248.02 122.254L1247.99 123.15L1240.38 122.887L1233.96 111.779L1231.66 111.7L1231.34 121.006L1234.93 121.802L1234.9 122.698L1224.36 122.335ZM1231.71 110.261L1233.1 110.309C1234.35 110.352 1235.34 110.231 1236.09 109.947C1236.83 109.664 1237.45 109.268 1237.92 108.762C1238.41 108.256 1238.76 107.686 1238.97 107.053C1239.2 106.41 1239.32 105.752 1239.35 105.081C1239.39 103.855 1239.17 102.833 1238.68 102.016C1238.2 101.199 1237.52 100.599 1236.65 100.217C1236.29 100.055 1235.89 99.9401 1235.46 99.8718C1235.03 99.7931 1234.5 99.7425 1233.85 99.7201L1232.07 99.6589L1231.71 110.261ZM1251.89 123.284L1251.92 122.388C1252.99 122.244 1253.8 122.058 1254.34 121.831C1254.89 121.605 1255.31 121.273 1255.6 120.835C1255.91 120.397 1256.22 119.788 1256.53 119.009L1263.17 102.845L1262.17 100.361L1266.02 98.7484L1273.91 121.194C1274.08 121.691 1274.28 122.071 1274.49 122.334C1274.71 122.598 1275.01 122.795 1275.42 122.927C1275.83 123.058 1276.41 123.169 1277.15 123.259L1277.12 124.154L1265.8 123.764L1265.83 122.868C1266.82 122.849 1267.58 122.8 1268.09 122.722C1268.61 122.633 1268.91 122.43 1269.01 122.113C1269.1 121.786 1269.03 121.25 1268.79 120.505L1263.9 105.559L1263.8 105.556L1258.2 119.339C1257.93 120.013 1257.84 120.565 1257.92 120.994C1258 121.413 1258.3 121.755 1258.83 122.018C1259.35 122.271 1260.14 122.501 1261.19 122.708L1261.16 123.604L1251.89 123.284ZM1259.09 115.383L1259.14 113.88L1268.38 114.199L1268.33 115.702L1259.09 115.383ZM1293.51 124.719L1293.54 123.824L1296.34 123.264L1297.08 101.965L1294.32 101.261L1294.35 100.366L1304.1 100.702L1304.07 101.629L1301.3 102.11L1300.56 123.41L1303.29 124.176L1303.26 125.056L1293.51 124.719ZM1278.01 124.185L1278.04 123.289L1280.86 122.73L1281.6 101.431L1278.82 100.727L1278.85 99.8313L1288.62 100.168L1288.59 101.064L1285.82 101.576L1285.09 122.876L1287.81 123.626L1287.78 124.522L1278.01 124.185ZM1283.4 112.268L1283.45 110.764L1298.87 111.296L1298.82 112.799L1283.4 112.268ZM1306.09 125.153L1306.12 124.258L1308.86 123.712L1309.6 102.396L1306.9 101.695L1306.93 100.8L1325.29 101.433L1325.62 108.408L1324.62 108.374C1324.38 107.49 1324.09 106.568 1323.73 105.606C1323.39 104.633 1322.97 103.701 1322.47 102.808L1313.8 102.51L1313.07 123.905L1321.56 124.198C1322.24 123.229 1322.8 122.261 1323.24 121.294C1323.69 120.328 1324.11 119.355 1324.51 118.376L1325.81 118.421L1324.3 125.781L1306.09 125.153ZM1319.53 117.179C1319.43 116.557 1319.29 115.933 1319.11 115.308C1318.93 114.672 1318.69 114.045 1318.39 113.426L1312.97 113.239L1313.02 111.784L1318.44 111.971C1318.79 111.364 1319.07 110.755 1319.29 110.143C1319.5 109.521 1319.68 108.913 1319.83 108.321L1320.82 108.355L1320.52 117.214L1319.53 117.179ZM1326.37 125.853L1326.4 124.957C1327.48 124.813 1328.28 124.627 1328.82 124.4C1329.38 124.174 1329.8 123.841 1330.09 123.403C1330.39 122.965 1330.7 122.357 1331.02 121.578L1337.66 105.413L1336.66 102.929L1340.51 101.317L1348.39 123.762C1348.57 124.259 1348.76 124.64 1348.98 124.903C1349.19 125.167 1349.5 125.364 1349.9 125.495C1350.31 125.627 1350.89 125.738 1351.64 125.827L1351.61 126.723L1340.28 126.332L1340.31 125.437C1341.31 125.418 1342.06 125.369 1342.58 125.291C1343.09 125.202 1343.4 124.999 1343.49 124.682C1343.59 124.354 1343.52 123.818 1343.28 123.074L1338.38 108.128L1338.29 108.125L1332.69 121.908C1332.42 122.582 1332.33 123.133 1332.41 123.563C1332.49 123.982 1332.79 124.324 1333.32 124.587C1333.84 124.84 1334.63 125.07 1335.68 125.277L1335.65 126.172L1326.37 125.853ZM1333.58 117.952L1333.63 116.449L1342.87 116.768L1342.82 118.271L1333.58 117.952ZM1352.56 126.756L1352.6 125.828L1355.33 125.314L1356.07 103.999L1353.37 103.298L1353.4 102.402L1361.61 102.685C1363.35 102.745 1364.87 102.872 1366.14 103.066C1367.41 103.259 1368.52 103.543 1369.47 103.917C1370.43 104.281 1371.29 104.759 1372.05 105.351C1373.49 106.457 1374.6 107.883 1375.38 109.628C1376.15 111.362 1376.5 113.29 1376.42 115.411C1376.35 117.575 1375.84 119.554 1374.89 121.346C1373.94 123.128 1372.69 124.52 1371.14 125.523C1370.14 126.161 1369.06 126.604 1367.9 126.852C1366.74 127.1 1365.32 127.196 1363.66 127.138L1352.56 126.756ZM1362.8 125.7C1364.22 125.749 1365.41 125.603 1366.37 125.263C1367.34 124.912 1368.19 124.333 1368.92 123.526C1369.74 122.593 1370.36 121.409 1370.81 119.973C1371.26 118.526 1371.52 116.875 1371.59 115.02C1371.65 113.166 1371.5 111.554 1371.15 110.186C1370.79 108.808 1370.22 107.652 1369.46 106.718C1368.76 105.883 1367.89 105.266 1366.86 104.868C1365.83 104.469 1364.52 104.242 1362.93 104.188L1360.28 104.096L1359.6 123.685C1359.58 124.377 1359.8 124.876 1360.27 125.18C1360.75 125.485 1361.59 125.658 1362.8 125.7Z" fill="white"/>
<path d="M1403.03 119.294L1398.69 119.144L1398.77 107.837L1403.77 108.009L1403.03 119.294L1403.03 119.294Z" fill="white"/>
<path d="M1398.48 125.834L1402.82 125.984L1402.97 121.645L1398.63 121.496L1398.48 125.834Z" fill="white"/>
<path d="M1436.52 129.987C1434.17 129.906 1432.13 129.313 1430.38 128.207C1428.64 127.101 1427.3 125.603 1426.36 123.713C1425.43 121.824 1425.01 119.659 1425.1 117.218C1425.16 115.363 1425.51 113.673 1426.14 112.147C1426.77 110.621 1427.65 109.312 1428.75 108.219C1429.86 107.125 1431.15 106.295 1432.63 105.727C1434.11 105.159 1435.73 104.905 1437.48 104.965C1438.76 105.01 1440 105.223 1441.22 105.607C1442.44 105.98 1443.54 106.498 1444.49 107.161L1444.62 107.165L1446.16 105.601L1446.9 105.627L1446.64 113.094L1445.44 113.053C1445.27 112.471 1445.08 111.941 1444.87 111.464C1444.67 110.977 1444.45 110.532 1444.22 110.129C1443.51 108.93 1442.66 108.053 1441.66 107.495C1440.67 106.938 1439.49 106.636 1438.11 106.588C1435.58 106.501 1433.62 107.356 1432.21 109.154C1430.8 110.952 1430.04 113.605 1429.92 117.112C1429.8 120.63 1430.38 123.366 1431.65 125.321C1432.94 127.265 1434.83 128.28 1437.33 128.366C1438.61 128.41 1439.77 128.189 1440.81 127.702C1441.86 127.204 1442.75 126.467 1443.48 125.488C1443.88 124.958 1444.23 124.356 1444.53 123.684C1444.84 123.001 1445.08 122.251 1445.25 121.435L1446.35 121.473L1446.06 129.98L1445.12 129.948L1443.8 127.821C1442.61 128.623 1441.43 129.196 1440.26 129.54C1439.1 129.884 1437.85 130.033 1436.52 129.987ZM1447.36 130.025L1447.39 129.13C1448.47 128.985 1449.27 128.799 1449.81 128.573C1450.37 128.346 1450.79 128.014 1451.08 127.576C1451.38 127.138 1451.69 126.53 1452.01 125.751L1458.65 109.586L1457.65 107.102L1461.5 105.49L1469.38 127.935C1469.56 128.432 1469.75 128.812 1469.97 129.076C1470.18 129.339 1470.49 129.537 1470.89 129.668C1471.31 129.799 1471.88 129.91 1472.63 130L1472.6 130.895L1461.27 130.505L1461.31 129.609C1462.3 129.59 1463.05 129.541 1463.57 129.463C1464.08 129.374 1464.39 129.171 1464.49 128.854C1464.58 128.527 1464.51 127.991 1464.27 127.246L1459.37 112.3L1459.28 112.297L1453.68 126.08C1453.41 126.754 1453.32 127.306 1453.4 127.736C1453.48 128.155 1453.78 128.496 1454.31 128.76C1454.83 129.012 1455.62 129.242 1456.67 129.449L1456.64 130.345L1447.36 130.025ZM1454.57 122.125L1454.62 120.622L1463.86 120.94L1463.81 122.443L1454.57 122.125ZM1483.66 131.613C1481.91 131.553 1480.37 131.227 1479.04 130.637C1477.7 130.036 1476.67 129.227 1475.95 128.209C1475.52 127.618 1475.22 126.93 1475.03 126.144C1474.86 125.348 1474.79 124.29 1474.84 122.968L1475.35 108.113L1472.59 107.409L1472.62 106.513L1482.47 106.853L1482.44 107.749L1479.6 108.259L1479.08 123.37C1479.01 125.449 1479.47 127.055 1480.45 128.188C1481.44 129.311 1482.81 129.903 1484.58 129.964C1486.78 130.04 1488.38 129.438 1489.39 128.16C1489.86 127.568 1490.22 126.748 1490.46 125.7C1490.7 124.641 1490.85 123.237 1490.91 121.489L1491.35 108.665L1488.56 107.96L1488.59 107.064L1495.88 107.316L1495.85 108.211L1493 108.721L1492.51 123.081C1492.46 124.36 1492.31 125.465 1492.06 126.395C1491.81 127.326 1491.46 128.125 1491 128.792C1490.3 129.761 1489.33 130.49 1488.07 130.981C1486.83 131.461 1485.36 131.672 1483.66 131.613ZM1502.36 131.922L1502.39 131.026L1506.04 130.48L1506.78 109.148L1500.92 108.946C1500.21 109.808 1499.6 110.726 1499.08 111.701C1498.58 112.676 1498.16 113.601 1497.82 114.475L1496.84 114.441L1498.26 107.398L1519.49 108.13L1520.41 115.254L1519.45 115.221C1519.18 114.325 1518.82 113.374 1518.38 112.366C1517.96 111.359 1517.42 110.401 1516.77 109.493L1510.98 109.293L1510.25 130.625L1513.79 131.419L1513.76 132.315L1502.36 131.922ZM1521.49 132.581L1521.52 131.686L1524.34 131.127L1525.08 109.828L1522.3 109.123L1522.33 108.228L1532.1 108.565L1532.07 109.46L1529.3 109.973L1528.57 131.272L1531.29 132.023L1531.26 132.918L1521.49 132.581ZM1545.69 133.752C1543.91 133.691 1542.3 133.315 1540.87 132.625C1539.45 131.936 1538.23 131.003 1537.23 129.826C1536.22 128.649 1535.46 127.294 1534.95 125.761C1534.45 124.218 1534.23 122.572 1534.29 120.823C1534.35 119.064 1534.68 117.438 1535.29 115.943C1535.9 114.449 1536.75 113.149 1537.84 112.045C1538.92 110.94 1540.2 110.098 1541.67 109.519C1543.14 108.93 1544.77 108.665 1546.55 108.727C1548.34 108.789 1549.95 109.164 1551.38 109.854C1552.82 110.533 1554.04 111.461 1555.04 112.638C1556.05 113.815 1556.8 115.169 1557.31 116.702C1557.82 118.236 1558.04 119.882 1557.98 121.641C1557.92 123.389 1557.58 125.016 1556.97 126.52C1556.36 128.015 1555.52 129.315 1554.43 130.419C1553.35 131.524 1552.06 132.371 1550.58 132.96C1549.11 133.55 1547.48 133.814 1545.69 133.752ZM1545.74 132.137C1546.72 132.171 1547.59 132.014 1548.35 131.667C1549.12 131.309 1549.79 130.798 1550.36 130.135C1550.94 129.472 1551.42 128.688 1551.8 127.783C1552.18 126.878 1552.48 125.885 1552.69 124.804C1552.9 123.722 1553.02 122.595 1553.06 121.423C1553.1 120.25 1553.05 119.128 1552.92 118.056C1552.79 116.973 1552.56 115.973 1552.24 115.055C1551.93 114.137 1551.51 113.333 1550.99 112.642C1550.47 111.952 1549.84 111.407 1549.1 111.008C1548.35 110.609 1547.5 110.392 1546.53 110.359C1545.54 110.325 1544.67 110.482 1543.9 110.829C1543.14 111.176 1542.47 111.681 1541.89 112.345C1541.33 112.997 1540.85 113.776 1540.47 114.681C1540.09 115.575 1539.79 116.557 1539.58 117.628C1539.39 118.689 1539.27 119.805 1539.23 120.978C1539.19 122.15 1539.23 123.283 1539.35 124.376C1539.48 125.459 1539.71 126.464 1540.03 127.393C1540.35 128.322 1540.77 129.137 1541.29 129.838C1541.81 130.529 1542.44 131.078 1543.17 131.488C1543.92 131.887 1544.77 132.104 1545.74 132.137ZM1580.22 135.119L1565.35 113.714L1564.7 132.535L1567.5 133.271L1567.46 134.167L1560.16 133.915L1560.19 133.019L1563.06 132.478L1563.79 111.163L1560.98 110.457L1561.01 109.562L1568.32 109.814L1580.34 126.942L1580.87 111.751L1578.08 111.047L1578.11 110.151L1585.41 110.403L1585.38 111.299L1582.52 111.808L1581.71 135.17L1580.22 135.119Z" fill="white"/>
</g>
<defs>
<clipPath id="clip0_38_833">
<rect width="1512" height="211" fill="white"/>
</clipPath>
</defs>
</svg>
