<?xml version="1.0" encoding="utf-8"?>
<!-- Generator: Adobe Illustrator 28.2.0, SVG Export Plug-In . SVG Version: 6.00 Build 0)  -->
<svg version="1.1" id="Layer_2_00000145751710533665768150000002248304929173163191_"
	 xmlns="http://www.w3.org/2000/svg" xmlns:xlink="http://www.w3.org/1999/xlink" x="0px" y="0px" viewBox="0 0 3885 741.1"
	 style="enable-background:new 0 0 3885 741.1;" xml:space="preserve">
<style type="text/css">
	.st0{fill:#C62E46;}
	.st1{fill:#020206;}
</style>
<g id="Layer_1-2">
	<g>
		<g>
			<path class="st0" d="M694.9,193.8h245.9c51.6,0,98.1,10.7,139.3,32.1c41.2,21.4,73.6,52.7,97,93.8s35.2,90.4,35.2,147.8
				s-11.9,106.6-35.5,147.8c-23.7,41.2-56,72.5-97,93.8c-41,21.4-87.3,32.1-139,32.1H695L694.9,193.8L694.9,193.8z M993.1,421.3
				c-6.4-12.5-15.6-21.9-27.7-28.1c-12.1-6.3-26.7-9.4-43.7-9.4h-29.9l12.8-14.1v193.1l-9.2-11.7h26.3c17.1,0,31.6-3.1,43.7-9.4
				c12.1-6.3,21.3-15.6,27.7-28.1c6.4-12.5,9.6-27.9,9.6-46.1C1002.7,449.2,999.5,433.8,993.1,421.3L993.1,421.3z"/>
			<path class="st0" d="M1383,193.8h218.2l182,547.3h-214c-6.6-27.6-11.5-48.1-14.6-61.4c-3.1-13.3-7.7-33.2-13.9-59.8
				c-3.8-16.7-6.8-29.2-8.9-37.5c-2.1-8.3-5.1-20.6-8.9-36.8l-55.4-236.1h47.6l-54.7,236.1c-3.8,17.2-6.8,30-8.9,38.3
				c-2.1,8.4-5.1,20.9-8.9,37.5c-6.2,27.1-10.8,47.3-13.9,60.6c-3.1,13.3-7.7,33-13.9,59h-215.4L1383,193.8L1383,193.8z
				 M1376.6,539.4h231l8.5,134.5h-248.8L1376.6,539.4L1376.6,539.4z"/>
			<path class="st0" d="M2319.1,193.8v547.3h-177l-179.8-282.3l44.8-17.2v299.5h-195.5V193.8h177L2168.4,476l-44.8,17.2V193.8
				H2319.1L2319.1,193.8z"/>
			<path class="st0" d="M2496.1,721.2c-41.2-23.7-73.1-56.9-95.6-99.7c-22.5-42.7-33.8-92.3-33.8-148.6c0-59.9,12.7-112.1,38-156.4
				c25.3-44.3,62.1-78.4,110.2-102.4c48.1-24,105.5-36,172.4-36c62.5,0,123.4,13.8,182.7,41.4v166.5c-23.2-12-47.3-21.2-72.2-27.7
				c-24.9-6.5-52.7-9.8-83.5-9.8c-26.1,0-48.5,3.9-67.2,11.7c-18.7,7.8-33.5,20.9-44.4,39.1c-10.9,18.2-16.3,42.7-16.3,73.5
				c0,38.1,7.1,67.5,21.3,88.4c14.2,20.9,34.8,31.3,61.8,31.3c7.6,0,15-1.2,22.4-3.5c7.3-2.3,12.9-5.3,16.7-9V466.7h163.5v215
				c-25.1,22.9-57.5,41.2-97,54.7c-39.6,13.5-84.7,20.3-135.4,20.3C2585.1,756.7,2537.3,744.9,2496.1,721.2L2496.1,721.2z
				 M2645.3,411.9h226.7v132.1h-226.7V411.9L2645.3,411.9z"/>
			<path class="st0" d="M2934.6,193.8h389.5v156.4h-179.8v234.6h179.8v156.4h-389.5V193.8z M3211.8,533.9h-71.1V397.1h143.6v136.8
				H3211.8L3211.8,533.9z"/>
			<path class="st0" d="M3377.5,193.8h262.3c36.5,0,69.7,7.8,99.5,23.5c29.9,15.6,53.4,37.4,70.7,65.3
				c17.3,27.9,25.9,59.8,25.9,95.8s-8.6,65-25.9,91.9c-17.3,26.9-40.9,47.7-70.7,62.5c-29.9,14.9-63,22.3-99.5,22.3h-100.2V453.4
				h59.7c14.7,0,27.5-4.7,38.4-14.1c10.9-9.4,16.3-23.2,16.3-41.4c0-19.3-5.5-33.6-16.3-43c-10.9-9.4-23.7-14.1-38.4-14.1h-59.7
				l47.6-34.4v434.7h-209.7V193.8z M3546.6,478.4l59.7-1.6l151.4-4.7l127.2,269h-231L3546.6,478.4z"/>
		</g>
		<g>
			<path class="st1" d="M694.8,6.6h91.9v131.9h-91.9V6.6z"/>
			<path class="st1" d="M807.5,6.6h143.2c26.6,0,48.8,4.2,66.5,12.6c17.7,8.4,29.2,20,34.5,34.9c1,2.9,1.8,5.9,2.3,9
				c0.5,3.1,0.8,6.2,0.8,9.5c0,3.3-0.3,6.7-0.8,9.9c-0.6,3.2-1.4,6.3-2.5,9.3c-3.5,9.7-9.8,18-18.9,25.1c-9.1,7-20.6,12.4-34.5,16.1
				c-13.9,3.7-29.6,5.6-47.2,5.6H807.5L807.5,6.6L807.5,6.6z M949.7,92.8c4.9-2.8,8.2-6.7,10-11.6c0.4-0.9,0.7-1.8,0.8-2.7
				c0.2-0.9,0.3-1.9,0.5-2.9c0.1-1,0.2-2,0.2-3c0-1.5-0.1-3-0.4-4.4c-0.3-1.4-0.6-2.9-1.1-4.2c-1.8-4.9-5.1-8.8-10-11.6
				c-4.9-2.8-10.9-4.2-17.9-4.2h-32.4v49h32.4C938.8,97,944.8,95.6,949.7,92.8L949.7,92.8z"/>
			<path class="st1" d="M1066.9,6.6h195.4v37.7h-103.4v10.4h100.4v35.8h-100.4v10.4h103.4v37.7h-195.4V6.6z"/>
			<path class="st1" d="M1345.9,6.6h125.9l78,131.9h-94.6l-39.8-82.7l-4-25.4h-4.9l-4.2,25.4l-39.9,82.7h-94.6L1345.9,6.6z
				 M1369.5,69.3h82.3l13.2,39.9h-109.1L1369.5,69.3z"/>
			<path class="st1" d="M1595.9,6.6h91.9v131.9h-91.9V6.6z"/>
			<path class="st1" d="M1708.6,6.6H1816l39.8,50.1l7.2,44.8h4.9V6.6h85.9v131.9h-107.4L1806,88.4l-6.6-44.8h-4.9v95h-85.9
				L1708.6,6.6L1708.6,6.6z"/>
			<path class="st1" d="M1963.3,6.6h221.9V48h-221.9V6.6z M2028.3,35.8h91.9v102.7h-91.9V35.8L2028.3,35.8z"/>
			<path class="st1" d="M2194.9,6.6h195.4v37.7h-103.4v10.4h100.4v35.8h-100.4v10.4h103.4v37.7h-195.4V6.6z"/>
			<path class="st1" d="M2409.1,6.6h159.4c16.6,0,30.2,2,40.8,6s18,9.7,22.1,17c1.4,2.4,2.4,4.9,3.1,7.5c0.7,2.6,1,5.4,1,8.3
				s-0.4,5.7-1.1,8.1s-1.9,4.8-3.4,7.3c-3.8,6.2-11.3,11-22.7,14.5c-11.4,3.5-28.4,5.3-51.2,5.3h-17.7l-12.8,11.7h-70.8V61.6h73.1
				c3.3,0,6-0.5,8.2-1.4c2.2-0.9,3.8-2.3,4.8-4c0.4-0.6,0.6-1.3,0.8-1.9s0.2-1.3,0.2-2.1s-0.1-1.4-0.2-2.1c-0.1-0.6-0.4-1.3-0.8-1.9
				c-1-1.8-2.6-3.1-4.8-4c-2.2-0.9-4.9-1.4-8.2-1.4H2501v95.7H2409L2409.1,6.6L2409.1,6.6z M2497.2,82.3l82.9-5.7V84l27.5,5.3
				l30.9,49.2h-105.9L2497.2,82.3L2497.2,82.3z"/>
			<path class="st1" d="M2649.8,6.6h155.2c17.1,0,31.2,2.2,42.3,6.7c11.1,4.5,19.1,10.8,23.8,19.1c1.8,2.9,3.1,6,3.9,9.3
				c0.8,3.3,1.2,6.8,1.2,10.5c0,3.7-0.4,7.3-1.2,10.7c-0.8,3.3-2.1,6.4-3.9,9.3c-4.8,8.3-12.7,14.7-23.8,19.1
				c-11.1,4.5-25.2,6.7-42.3,6.7h-90.4V61.8h55c3.3,0,6-0.5,8.2-1.4s3.8-2.3,4.8-4c0.4-0.6,0.6-1.3,0.8-2c0.1-0.7,0.2-1.4,0.2-2.2
				s-0.1-1.4-0.2-2.1c-0.1-0.6-0.4-1.3-0.8-1.9c-1-1.8-2.6-3.1-4.8-4c-2.2-0.9-4.9-1.4-8.2-1.4h-27.9v95.7h-91.9V6.6z"/>
			<path class="st1" d="M2888.9,6.6h159.4c16.6,0,30.2,2,40.8,6s18,9.7,22.1,17c1.4,2.4,2.4,4.9,3.1,7.5c0.7,2.6,1,5.4,1,8.3
				s-0.4,5.7-1.1,8.1s-1.9,4.8-3.4,7.3c-3.8,6.2-11.3,11-22.7,14.5c-11.4,3.5-28.4,5.3-51.1,5.3h-17.7l-12.8,11.7h-70.8V61.6h73.1
				c3.3,0,6-0.5,8.2-1.4s3.8-2.3,4.8-4c0.4-0.6,0.6-1.3,0.8-1.9c0.1-0.6,0.2-1.3,0.2-2.1s-0.1-1.4-0.2-2.1c-0.1-0.6-0.4-1.3-0.8-1.9
				c-1-1.8-2.6-3.1-4.8-4c-2.2-0.9-4.9-1.4-8.2-1.4h-27.9v95.7h-91.9L2888.9,6.6L2888.9,6.6z M2977.1,82.3l82.9-5.7V84l27.5,5.3
				l30.9,49.2h-105.9L2977.1,82.3L2977.1,82.3z"/>
			<path class="st1" d="M3129.7,6.6h195.4v37.7h-103.4v10.4h100.4v35.8h-100.4v10.4h103.4v37.7h-195.4V6.6z"/>
			<path class="st1" d="M3332.8,6.6h221.9V48h-221.9L3332.8,6.6L3332.8,6.6z M3397.8,35.8h91.9v102.7h-91.9V35.8L3397.8,35.8z"/>
			<path class="st1" d="M3605.5,139.5c-16.7-3.7-29-9.1-37-16.1c-8-7-12.1-15.6-12.1-25.6h89.3c0,2.5,1,4.6,3.1,6.3s5,3,8.8,3.9
				c3.8,0.9,8.2,1.3,13.3,1.3c5.4,0,10-0.5,13.8-1.4s6.3-2.3,7.4-4c0.3-0.4,0.4-0.8,0.6-1.2c0.1-0.4,0.2-0.9,0.2-1.4s-0.1-1-0.2-1.4
				c-0.1-0.4-0.3-0.8-0.4-1.2l-0.2-0.2c-0.9-1.5-3-2.6-6.3-3.4c-3.3-0.8-9.5-1.6-18.4-2.6l-46.9-5.7c-17.3-2.1-30.5-5-39.5-8.6
				c-9-3.6-15.2-8.2-18.6-14c-1.4-2.4-2.4-5-3-7.9c-0.6-2.9-0.9-6-0.9-9.2c0-2.1,0.2-4.2,0.5-6c0.3-1.9,0.8-3.7,1.4-5.6
				c0.6-1.8,1.4-3.6,2.5-5.4c5.8-9.8,17.7-17.2,35.8-22.3s42.9-7.6,74.4-7.6c25,0,45.7,1.9,62.2,5.6c16.4,3.7,28.7,9.1,36.7,16.1
				c8,7,12,15.6,12,25.6h-89.3c0-3.8-2.2-6.6-6.5-8.6c-4.3-1.9-10.1-2.9-17.4-2.9c-5.4,0-10,0.5-13.8,1.4c-3.8,0.9-6.3,2.3-7.4,4
				c-0.1,0.3-0.3,0.5-0.4,0.9c-0.1,0.3-0.2,0.6-0.3,0.9c-0.1,0.3-0.1,0.6-0.1,0.8c0,0.5,0.1,1,0.2,1.5c0.1,0.5,0.3,0.9,0.6,1.3
				c0.9,1.5,3,2.7,6.5,3.5c3.4,0.8,9.5,1.7,18.2,2.5l49.9,4.9c15.6,1.5,27.7,4.2,36.5,8.1c8.8,3.9,14.9,8.8,18.5,14.7
				c1.4,2.4,2.4,5,3,7.9c0.6,2.9,0.9,6,0.9,9.4c0,3.4-0.3,6.3-1,9.1c-0.7,2.8-1.8,5.6-3.3,8.2c-5.8,9.8-17.7,17.2-35.8,22.3
				s-42.9,7.6-74.4,7.6C3643.2,145.1,3622.2,143.2,3605.5,139.5L3605.5,139.5z"/>
		</g>
		<path class="st1" d="M14.4,279.8h177.2l12.6,461.6H0L14.4,279.8z"/>
		<rect x="13.5" y="6.6" class="st1" width="177.3" height="177.3"/>
		<path class="st1" d="M543.9,468.1H366.7L354.1,6.6h204.2L543.9,468.1L543.9,468.1z"/>
		<rect x="367.6" y="564.1" class="st1" width="177.3" height="177.3"/>
	</g>
</g>
</svg>
