<svg width="1512" height="353" viewBox="0 0 1512 353" fill="none" xmlns="http://www.w3.org/2000/svg">
<path d="M1513 163C1462.5 121.5 1397 118 1335 135.5C1272.08 153.261 1208.93 159.512 1143.99 155.729C1103.87 153.392 1048.1 142.004 1028.4 102.587C1017.74 81.2779 1015.28 56.0854 1023 32.5C1028.97 14.2721 1051.71 2 1068.94 2C1106.44 2 1123.71 52.5878 1120 83.8499C1115.97 117.809 1105.36 152.823 1080.22 177.534C1042.49 214.624 991.039 235.902 939.423 244.153C871.519 255.008 801.903 253.664 733.428 250.946C660.72 248.061 589.939 228.125 517.025 224.978C440.846 221.69 363.163 220.818 287.801 234.072C185.276 252.104 86.2379 300.737 -4.20703 350.657" stroke="#C62E46" stroke-width="3" stroke-linecap="round"/>
</svg>
