<?xml version="1.0" encoding="UTF-8"?>
<svg id="Layer_1" data-name="Layer 1" xmlns="http://www.w3.org/2000/svg" viewBox="0 0 32 32">
  <defs>
    <style>
      .cls-1 {
        fill: #c46363;
      }
    </style>
  </defs>
  <path class="cls-1" d="M.82,2.83c1.12,1.23.6,5.79.6,5.79,0,0-.24,1.78,1.26,1.59,1.17-.15,1.64-.9,1.8-1.22.04-.08.13-.1.2-.04.69.61.88,1.63.93,2.09.01.12.02.25,0,.37-.05.75.11,1.22.27,1.49.13.22.38.35.63.33,1.24-.08,1.43-1.16,1.43-1.16.41-.1,1.55.97,1.55.97,2.94,2.61,3.57.85,3.71.42,0,0,0,0,0-.01.09-.27.41-.39.67-.25.54.31.99.45,1.36.48.71.07,1.37-.4,1.56-1.09.59-2.1-1.16-2.67-.68-2.81.51-.15.36-.54.36-.54-.77-1.9-3.46-.99-2.86-1.47.25-.2.39-.39.46-.53.09-.18.06-.4-.07-.56-.64-.75-2.23-.54-3.51-.47-1.4.07-1.04-.34-.61-.6.43-.26.51-.94-.69-1.07-1.2-.13-2.03-.06-2.41-.34-.38-.28.15-.76-.33-1.2-.49-.44-1.42-.43-1.42-.43C1.86,2.03,1.02,0,1.02,0-.31.17-.3,1.59.82,2.83ZM4.07,4.18c.85.89,1.8,2.01,2.56,2.73,1.12,1.07,2.07,1.65,3.15,2.25,1.21.68,2.31,1.03,2.98,1.31.13.06.07.25-.07.23-4.91-.82-7.74-4.58-8.82-6.36-.08-.13.1-.27.21-.16Z"/>
</svg>